<svg width="204" height="55" viewBox="0 0 204 55" fill="none" xmlns="http://www.w3.org/2000/svg">
<path d="M38.7667 7.65474C38.7689 9.43682 38.151 11.1638 37.0193 12.538L36.9346 12.6432C36.2174 13.4825 35.3282 14.1568 34.3276 14.6204C33.3269 15.0838 32.2383 15.3256 31.136 15.3291C30.0338 15.3325 28.9437 15.0976 27.9401 14.6403C26.9367 14.1832 26.0431 13.5145 25.3208 12.6797L25.2038 12.538C24.4839 11.6962 23.5911 11.0206 22.5863 10.5573C21.5816 10.094 20.4886 9.85408 19.3827 9.85408C18.2769 9.85408 17.1841 10.094 16.1792 10.5573C15.1745 11.0206 14.2815 11.6962 13.5618 12.538L13.4729 12.6432C12.7531 13.485 11.8602 14.1609 10.8555 14.624C9.85069 15.0873 8.75793 15.3273 7.65199 15.3273C6.54606 15.3273 5.4532 15.0873 4.44844 14.624C3.44367 14.1609 2.55075 13.485 1.83096 12.6432L1.74624 12.538C0.627392 11.1703 0.0132478 9.45769 0.00736685 7.68881C0.00148593 5.91995 0.604197 4.2031 1.71393 2.82796C1.75428 2.78346 1.79061 2.73496 1.83096 2.68641C2.55075 1.84459 3.44367 1.16884 4.44844 0.705554C5.4532 0.242269 6.54606 0.00236998 7.65199 0.00236998C8.75793 0.00236998 9.85069 0.242269 10.8555 0.705554C11.8602 1.16884 12.7531 1.84459 13.4729 2.68641L13.5618 2.7916C14.2815 3.63342 15.1745 4.30917 16.1792 4.77246C17.1841 5.23574 18.2769 5.47555 19.3827 5.47555C20.4886 5.47555 21.5816 5.23574 22.5863 4.77246C23.5911 4.30917 24.4839 3.63342 25.2038 2.7916L25.2885 2.68641C26.0082 1.8439 26.9015 1.16759 27.9066 0.703879C28.9117 0.240166 30.0051 0 31.1116 0C32.218 0 33.3114 0.240166 34.3165 0.703879C35.3216 1.16759 36.2149 1.8439 36.9346 2.68641L37.0193 2.7916C38.1466 4.16049 38.7643 5.8796 38.7667 7.65474Z" fill="#314158"/>
<path d="M38.7656 27.3911C38.7678 29.1731 38.1499 30.9001 37.0182 32.2743L36.9335 32.3796C36.2163 33.2188 35.3272 33.8932 34.3265 34.3566C33.3258 34.8201 32.2372 35.0619 31.135 35.0654C30.0327 35.0687 28.9426 34.8339 27.939 34.3768C26.9356 33.9195 26.0421 33.2507 25.3197 32.416C25.2834 32.3675 25.2431 32.3229 25.2027 32.2743C24.4829 31.4326 23.59 30.7568 22.5852 30.2935C21.5805 29.8302 20.4876 29.5904 19.3817 29.5904C18.2758 29.5904 17.183 29.8302 16.1783 30.2935C15.1734 30.7568 14.2805 31.4326 13.5607 32.2743L13.4719 32.3796C12.3442 33.755 11.7277 35.4803 11.7277 37.2608C11.7277 39.0414 12.3442 40.7668 13.4719 42.1422L13.5607 42.2475C14.6885 43.623 15.3049 45.3483 15.3049 47.1287C15.3049 48.9093 14.6885 50.6345 13.5607 52.0101C13.5325 52.0425 13.5041 52.0789 13.4719 52.1113C12.7521 52.953 11.8592 53.6288 10.8544 54.0921C9.84962 54.5554 8.75686 54.7952 7.65093 54.7952C6.54501 54.7952 5.45214 54.5554 4.44738 54.0921C3.4426 53.6288 2.54969 52.953 1.8299 52.1113L1.71287 51.9697C0.604742 50.6002 0 48.8901 0 47.1267C0 45.3632 0.604742 43.6533 1.71287 42.2838L1.8299 42.1422C2.95761 40.7668 3.57409 39.0414 3.57409 37.2608C3.57409 35.4803 2.95761 33.755 1.8299 32.3796L1.74518 32.2743C0.62633 30.9067 0.0121862 29.1941 0.00630526 27.4252C0.000424329 25.6563 0.603134 23.9395 1.71287 22.5643L1.8299 22.4228C2.54969 21.5809 3.4426 20.9052 4.44738 20.4419C5.45214 19.9786 6.54501 19.7387 7.65093 19.7387C8.75686 19.7387 9.84962 19.9786 10.8544 20.4419C11.8592 20.9052 12.7521 21.5809 13.4719 22.4228L13.5607 22.5279C14.2805 23.3698 15.1734 24.0454 16.1783 24.5087C17.183 24.972 18.2758 25.2118 19.3817 25.2118C20.4876 25.2118 21.5805 24.972 22.5852 24.5087C23.59 24.0454 24.4829 23.3698 25.2027 22.5279L25.3197 22.3863C26.0421 21.5515 26.9356 20.8827 27.939 20.4256C28.9426 19.9684 30.0327 19.7335 31.135 19.7369C32.2372 19.7404 33.3258 19.9822 34.3265 20.4456C35.3272 20.9092 36.2163 21.5834 36.9335 22.4228C36.9577 22.4591 36.9899 22.4914 37.0182 22.5279C38.1455 23.8968 38.7632 25.6159 38.7656 27.3911Z" fill="#314158"/>
<path d="M82.5127 23.2465V42.5342H77.2456V27.6055H69.3163V42.5342H64.0491V27.6055H60.5728V23.2465H64.0491V20.854C64.0491 17.9237 64.7541 15.6569 66.1642 14.0537C67.5741 12.4505 69.577 11.6489 72.1727 11.6489C72.9654 11.651 73.7563 11.7271 74.5349 11.8763C75.2443 11.994 75.9368 12.1972 76.5973 12.4816L76.0301 16.7998C75.049 16.4367 74.0127 16.2456 72.9669 16.2351C71.7068 16.2351 70.7831 16.6414 70.1875 17.4538C69.5919 18.2663 69.3001 19.5581 69.3001 21.3008V23.2304L82.5127 23.2465Z" fill="#314158"/>
<path d="M85.9121 23.2471H91.694L96.1509 37.006L100.762 23.2471H106.244L98.7965 42.5387H93.3713L85.9121 23.2471Z" fill="#314158"/>
<path d="M117.839 43.1433C115.812 43.1873 113.802 42.7707 111.96 41.9247C110.333 41.161 108.972 39.9274 108.05 38.3823C107.09 36.721 106.606 34.826 106.652 32.9064C106.625 31.0838 107.043 29.2823 107.867 27.658C108.648 26.1335 109.84 24.8596 111.307 23.9816C112.877 23.0645 114.669 22.5992 116.485 22.6371C118.152 22.6006 119.8 22.9996 121.267 23.7948C122.638 24.5609 123.755 25.7134 124.479 27.1095C125.281 28.6918 125.677 30.4498 125.63 32.224C125.637 32.9863 125.574 33.7478 125.444 34.4989H111.875C112.531 37.3804 114.711 38.8197 118.414 38.817C119.551 38.8198 120.686 38.7001 121.797 38.4595C122.827 38.242 123.824 37.891 124.763 37.4155L125.294 41.5469C124.25 42.1026 123.129 42.4984 121.968 42.7208C120.61 43.0067 119.226 43.1484 117.839 43.1433ZM120.598 30.8265C120.552 29.6726 120.088 28.5751 119.293 27.7393C118.895 27.3716 118.427 27.0869 117.918 26.9015C117.409 26.716 116.868 26.6334 116.327 26.6587C115.23 26.6173 114.159 27.0048 113.341 27.7393C112.504 28.5676 111.972 29.6558 111.83 30.8265H120.598Z" fill="#314158"/>
<path d="M142.308 42.9283C140.624 42.9503 138.964 42.5196 137.503 41.6811C136.052 40.8382 134.855 39.6186 134.038 38.1511C133.2 36.5936 132.753 34.8548 132.736 33.0851C132.719 31.3156 133.133 29.5686 133.941 27.9954C134.734 26.497 135.908 25.2355 137.345 24.3394C138.833 23.4103 140.555 22.9293 142.308 22.954C143.917 22.941 145.499 23.3741 146.878 24.2053C148.274 25.0451 149.423 26.2425 150.205 27.6745L150.246 23.2465H151.647V42.5381H150.246L150.205 38.2486C149.426 39.6784 148.277 40.8713 146.878 41.7015C145.494 42.5178 143.914 42.9417 142.308 42.9283ZM142.308 41.604C143.738 41.6283 145.148 41.2545 146.379 40.5246C147.61 39.7946 148.616 38.7368 149.285 37.4686C150.027 36.0776 150.401 34.5201 150.374 32.9431C150.391 31.4323 150.044 29.9398 149.363 28.5925C148.71 27.3055 147.721 26.2201 146.501 25.4524C145.249 24.6666 143.797 24.2604 142.32 24.2824C140.898 24.2663 139.497 24.637 138.268 25.3549C137.032 26.086 136.023 27.1463 135.351 28.4179C134.607 29.8079 134.232 31.366 134.261 32.9431C134.243 34.4518 134.583 35.9433 135.254 37.2939C135.903 38.6092 136.911 39.7126 138.162 40.4757C139.412 41.2387 140.853 41.63 142.316 41.604H142.308Z" fill="#314158"/>
<path d="M166.039 42.8149C164.289 42.841 162.56 42.4216 161.014 41.5963C159.531 40.7961 158.3 39.5975 157.458 38.1352C156.558 36.556 156.103 34.7617 156.141 32.9436C156.108 31.1672 156.527 29.4114 157.356 27.8414C158.17 26.3399 159.394 25.1025 160.884 24.2747C162.522 23.3787 164.365 22.9277 166.229 22.9667C167.233 22.9756 168.232 23.1121 169.203 23.3729C170.154 23.6137 171.068 23.9769 171.926 24.4535L171.594 25.8753C169.897 24.955 168.003 24.4589 166.075 24.4292C164.591 24.404 163.124 24.7576 161.813 25.4569C160.558 26.135 159.525 27.16 158.836 28.4102C158.091 29.7791 157.716 31.3196 157.749 32.8786C157.721 34.4036 158.07 35.9119 158.762 37.2698C159.419 38.5383 160.429 39.5883 161.672 40.2923C163.018 41.0387 164.537 41.4143 166.075 41.3809C167.078 41.3761 168.075 41.2533 169.049 41.0152C170.017 40.7877 170.957 40.4512 171.848 40.0118L172.076 41.4052C171.162 41.8761 170.192 42.2307 169.19 42.4615C168.157 42.6989 167.099 42.8174 166.039 42.8149Z" fill="#314158"/>
<path d="M180.889 24.6162H174.304V23.2471H189.04V24.6162H182.456V42.5387H180.889V24.6162Z" fill="#314158"/>
<path d="M197.221 42.9453C196.126 42.9453 195.036 42.7992 193.979 42.5108C193.037 42.2796 192.138 41.8938 191.321 41.3692L191.549 39.9231C192.381 40.4532 193.284 40.8634 194.231 41.1417C195.183 41.4312 196.172 41.5804 197.168 41.5845C198.737 41.5845 199.978 41.2379 200.888 40.5445C201.327 40.2221 201.682 39.7966 201.921 39.3053C202.159 38.814 202.275 38.2716 202.257 37.7253C202.284 37.0697 202.117 36.4207 201.775 35.8608C201.362 35.3008 200.818 34.8516 200.191 34.5528C199.189 34.0558 198.153 33.6323 197.091 33.2854C195.135 32.6274 193.747 31.8865 192.927 31.0633C192.517 30.6393 192.197 30.1362 191.988 29.5844C191.779 29.0326 191.684 28.4438 191.71 27.8541C191.682 27.1607 191.812 26.4699 192.093 25.8357C192.374 25.2014 192.798 24.641 193.331 24.1981C194.412 23.2963 195.876 22.844 197.722 22.8413C198.645 22.8424 199.562 22.9529 200.458 23.1703C201.328 23.379 202.172 23.6942 202.966 24.1087L202.662 25.4817C201.138 24.6781 199.445 24.244 197.722 24.2144C196.323 24.2144 195.223 24.5272 194.422 25.1528C194.026 25.4542 193.709 25.8469 193.497 26.2973C193.285 26.7478 193.185 27.2428 193.205 27.7403C193.182 28.346 193.322 28.9467 193.61 29.4789C193.955 30.0071 194.431 30.4357 194.992 30.722C195.85 31.1793 196.749 31.5573 197.674 31.8515C198.945 32.2509 200.167 32.7876 201.321 33.4519C202.089 33.8858 202.736 34.5043 203.205 35.2514C203.599 35.9653 203.797 36.7715 203.776 37.5873C203.806 38.3335 203.659 39.0762 203.348 39.7552C203.038 40.434 202.572 41.0302 201.99 41.4952C200.823 42.462 199.233 42.9453 197.221 42.9453Z" fill="#314158"/>
</svg>
