<svg width="147" height="31" viewBox="0 0 147 31" fill="none" xmlns="http://www.w3.org/2000/svg">
<path d="M9.37986 24.2088C5.73449 24.2088 3.01136 23.2148 0 21.2237L2.64658 18.0201C3.5642 18.5783 4.64301 19.0394 5.88302 19.4035C7.14783 19.7432 8.38785 19.9131 9.60306 19.9131C10.9423 19.9131 11.8847 19.7554 12.4303 19.4399C13.0007 19.1244 13.2859 18.6875 13.2859 18.1293C13.2859 17.6682 13.0627 17.3284 12.6163 17.11C12.1947 16.8673 11.6243 16.6853 10.9051 16.5639C10.1859 16.4426 9.39226 16.3212 8.52425 16.1999C7.68104 16.0786 6.82543 15.9208 5.95742 15.7266C5.08941 15.5082 4.2958 15.1927 3.57659 14.7801C2.85739 14.3676 2.27458 13.8094 1.82818 13.1055C1.40657 12.4017 1.19577 11.4916 1.19577 10.3752C1.19577 9.13747 1.55537 8.04534 2.27458 7.09883C3.01859 6.15232 4.085 5.4121 5.47382 4.87817C9.96834 3.56012 15.2619 4.02863 18.8688 7.12025L16.4107 10.084C14.5112 8.98771 12.6717 8.33658 10.4587 8.33658C9.16906 8.33658 8.22665 8.50646 7.63144 8.84624C7.03623 9.18601 6.73863 9.62286 6.73863 10.1568C6.73863 10.6422 6.94943 11.0062 7.37104 11.2489C7.81744 11.4916 8.40025 11.6858 9.11946 11.8314C9.83866 11.977 10.6199 12.1105 11.4631 12.2318C12.3311 12.3289 13.1991 12.4867 14.0671 12.7051C14.9351 12.9235 15.7163 13.239 16.4107 13.6516C17.1299 14.0399 17.7128 14.586 18.1592 15.2898C18.6056 15.9693 18.8288 16.8673 18.8288 17.9837C18.8288 19.1972 18.4568 20.2772 17.7128 21.2237C16.9687 22.1459 15.8899 22.874 14.4763 23.4079C13.0875 23.9419 11.3887 24.2088 9.37986 24.2088ZM48.4124 4.04087C49.9996 4.04087 51.4008 4.35638 52.616 4.98738C53.856 5.59412 54.8233 6.54063 55.5177 7.82692C56.2369 9.08893 56.5965 10.715 56.5965 12.7051V23.9176H50.7932V13.5788C50.7932 12.0013 50.4584 10.8363 49.7888 10.084C49.1192 9.33163 48.1768 8.95545 46.9616 8.95545C46.1184 8.95545 45.362 9.14961 44.6923 9.53792C44.0227 9.90196 43.5019 10.4602 43.1299 11.2125C42.7579 11.9649 42.5719 12.9235 42.5719 14.0885V23.9176H36.7687V13.5788C36.7687 12.0013 36.4339 10.8363 35.7643 10.084C35.1194 9.33163 34.1894 8.95545 32.9742 8.95545C32.131 8.95545 31.3746 9.14961 30.705 9.53792C30.0354 9.90196 29.5146 10.4602 29.1426 11.2125C28.7706 11.9649 28.5846 12.9235 28.5846 14.0885V23.9176H22.7813V4.33211H26.9001L28.3242 9.68353L27.2826 8.11815C27.977 6.78333 28.9566 5.77614 30.2214 5.0966C31.511 4.39278 32.9742 4.04087 34.611 4.04087C36.4463 4.04087 38.0459 4.50199 39.4099 5.42424C40.7987 6.32221 41.7163 7.70557 42.1627 9.57432L40.1167 9.02826C40.7863 7.49928 41.8527 6.2858 43.3159 5.38783C44.804 4.48986 46.5028 4.04087 48.4124 4.04087ZM75.8703 23.9176L74.4463 20.0952L74.0743 19.2579V12.4139C74.0743 11.2004 73.6899 10.2539 72.9211 9.57432C72.177 8.89478 71.0238 8.555 69.4614 8.555C68.395 8.555 67.341 8.72489 66.2994 9.06466C65.2826 9.38017 64.4146 9.81702 63.6954 10.3752L61.2343 6.76423C62.3255 6.01188 64.0178 5.07233 65.5554 4.65975C67.093 4.24716 68.6554 4.04087 70.2426 4.04087C73.2931 4.04087 75.6615 4.74469 77.3479 6.15232C79.0343 7.55995 79.8775 9.75634 79.8775 12.7415V23.9176H75.8703ZM67.6334 24.2088C66.071 24.2088 64.7318 23.954 63.6157 23.4443C62.4997 22.9104 61.6441 22.1945 61.0489 21.2965C60.4537 20.3985 60.1561 19.3913 60.1561 18.2749C60.1561 17.11 60.4413 16.0907 61.0117 15.217C61.6069 14.3433 62.5369 13.6637 63.8017 13.1783C65.0666 12.6687 66.7158 12.4139 68.7494 12.4139H74.7811V15.7266C72.4706 15.7266 68.562 14.9964 66.6064 16.6367C66.1104 17.0736 65.8624 17.6197 65.8624 18.2749C65.8624 19.003 66.1476 19.5855 66.718 20.0223C67.3132 20.4349 68.1192 20.6412 69.136 20.6412C71.7638 20.6412 73.9131 19.0773 74.0507 16.3766L75.8306 20.6487C73.6945 23.4968 70.627 24.2088 67.6334 24.2088ZM84.7897 23.9176V4.33211H88.9086L90.3326 9.86556L89.5514 8.26377C91.1021 4.65971 95.1027 4.04087 98.6387 4.04087V8.57106C96.4255 8.35447 93.7945 8.26048 92.0438 9.84521C91.0766 10.7189 90.593 12.0901 90.593 13.9589V23.9176H84.7897ZM105.118 22.4614C103.804 21.2722 103.146 19.5127 103.146 17.1828V0.712025L108.95 0V17.11C108.94 19.5807 112.856 20.2927 114.992 18.8687C114.942 20.837 114.636 21.7168 116.416 23.4968C114.423 22.6997 112.638 24.8132 109.296 24.25C107.696 23.9804 106.132 23.3604 105.118 22.4614ZM103.619 9.13747V4.76896H115.359V9.13747H103.619Z" fill="#314158"/>
<path d="M139.243 7.18786C138.941 6.08105 137.8 5.42827 136.693 5.72982C135.586 6.03138 134.933 7.17308 135.235 8.27989C135.536 9.38669 136.678 10.0395 137.785 9.73793C137.907 9.7047 138.023 9.66128 138.133 9.60882C138.68 9.34901 139.302 9.10626 139.871 9.31121L140.093 9.3913C140.59 9.57026 140.856 10.0969 140.995 10.6064C141.121 11.0693 141.141 11.5997 140.835 11.9687L140.691 12.1415C140.312 12.5977 139.662 12.6932 139.07 12.7204C138.919 12.7272 138.768 12.7506 138.617 12.7918C137.51 13.0933 136.857 14.235 137.159 15.3418C137.46 16.4486 138.602 17.1014 139.709 16.7999C139.828 16.7674 139.942 16.7251 140.05 16.6742C140.598 16.4161 141.222 16.1738 141.792 16.3791L142.022 16.462C142.515 16.6398 142.781 17.1622 142.919 17.6684C143.044 18.1277 143.063 18.6536 142.758 19.0197L142.609 19.1992C142.23 19.6563 141.578 19.7528 140.985 19.7826C140.838 19.79 140.689 19.8132 140.541 19.8536C139.434 20.1551 138.781 21.2968 139.083 22.4036C139.384 23.5105 140.526 24.1632 141.633 23.8617C142.74 23.5601 143.393 22.4184 143.091 21.3116C142.986 20.927 142.989 20.4922 143.243 20.1856L143.509 19.866C143.908 19.3851 144.586 19.2662 145.205 19.1804C145.293 19.1682 145.381 19.1503 145.469 19.1264C146.575 18.8249 147.228 17.6832 146.927 16.5764C146.625 15.4696 145.483 14.8168 144.377 15.1183C144.291 15.1416 144.208 15.1699 144.129 15.2028C143.554 15.4397 142.913 15.6772 142.328 15.4665L142 15.3483C141.546 15.185 141.294 14.7149 141.167 14.2498C141.048 13.8124 141.036 13.3135 141.326 12.9647L141.508 12.7444C141.894 12.2806 142.552 12.1777 143.154 12.1321C143.284 12.1223 143.415 12.1 143.545 12.0645C144.652 11.7629 145.305 10.6212 145.003 9.51442C144.701 8.40761 143.56 7.75483 142.453 8.05638C142.384 8.07524 142.316 8.09738 142.251 8.1226C141.663 8.34878 141.013 8.58425 140.42 8.37079L140.044 8.2354C139.61 8.07897 139.364 7.63325 139.243 7.18786Z" fill="#314158"/>
<path d="M122.065 11.868C121.764 10.7612 120.622 10.1084 119.515 10.41C118.408 10.7116 117.755 11.8533 118.057 12.9601C118.359 14.0669 119.5 14.7197 120.607 14.4181C120.729 14.3849 120.846 14.3414 120.956 14.2889C121.502 14.0291 122.124 13.7864 122.693 13.9913L122.915 14.0712C123.411 14.2502 123.678 14.777 123.817 15.2866C123.943 15.7498 123.963 16.2806 123.656 16.65L123.513 16.8221C123.135 17.2781 122.485 17.3735 121.892 17.4005C121.742 17.4073 121.59 17.4307 121.439 17.4719C120.332 17.7735 119.679 18.9152 119.981 20.022C120.283 21.1288 121.424 21.7816 122.531 21.48C122.65 21.4475 122.764 21.4053 122.873 21.3543C123.421 21.0962 124.044 20.8539 124.614 21.0592L124.844 21.142C125.338 21.3198 125.603 21.8422 125.741 22.3484C125.866 22.8077 125.885 23.3337 125.581 23.6999L125.432 23.8793C125.052 24.3364 124.401 24.4329 123.807 24.4626C123.66 24.47 123.511 24.4933 123.363 24.5336C122.256 24.8352 121.603 25.9769 121.905 27.0837C122.207 28.1905 123.348 28.8433 124.455 28.5417C125.562 28.2402 126.215 27.0985 125.913 25.9917C125.808 25.6072 125.811 25.1725 126.065 24.8659L126.331 24.5462C126.73 24.0652 127.408 23.9463 128.028 23.8604C128.115 23.8482 128.203 23.8303 128.291 23.8065C129.398 23.5049 130.05 22.3632 129.749 21.2564C129.447 20.1496 128.306 19.4968 127.199 19.7983C127.113 19.8216 127.031 19.8499 126.951 19.8828C126.376 20.1197 125.735 20.3573 125.15 20.1466L124.822 20.0283C124.368 19.865 124.116 19.395 123.989 18.93C123.87 18.4927 123.858 17.994 124.148 17.6453L124.331 17.4248C124.716 16.9609 125.375 16.858 125.976 16.8123C126.106 16.8024 126.236 16.7801 126.367 16.7446C127.473 16.4431 128.126 15.3014 127.825 14.1946C127.523 13.0878 126.381 12.435 125.275 12.7365C125.205 12.7554 125.138 12.7776 125.072 12.8028C124.485 13.0289 123.835 13.2643 123.242 13.0509L122.866 12.9156C122.432 12.7591 122.186 12.3134 122.065 11.868Z" fill="#314158"/>
<path d="M132.387 16.6423C132.268 16.2046 132.256 15.7054 132.546 15.3564L132.728 15.1365C133.113 14.6727 133.772 14.5699 134.373 14.5244C134.503 14.5145 134.634 14.4922 134.764 14.4567C135.871 14.1551 136.524 13.0134 136.223 11.9066C135.921 10.7998 134.779 10.147 133.672 10.4486C132.566 10.7501 131.913 11.8918 132.214 12.9986C132.341 13.4615 132.361 13.9919 132.054 14.361L131.91 14.5339C131.532 14.99 130.881 15.0855 130.289 15.1128C130.139 15.1198 129.988 15.1431 129.837 15.1842C128.73 15.4858 128.077 16.6275 128.379 17.7343C128.68 18.8411 129.822 19.4939 130.929 19.1923C131.048 19.1598 131.162 19.1176 131.27 19.0667C131.818 18.8085 132.442 18.5662 133.012 18.7715L133.242 18.8544C133.735 19.0321 134.001 19.5544 134.138 20.0605C134.44 21.1674 135.582 21.8201 136.689 21.5186C137.795 21.217 138.448 20.0753 138.147 18.9685C137.845 17.8617 136.703 17.2089 135.597 17.5105C135.511 17.5338 135.428 17.5621 135.348 17.595C134.774 17.8319 134.133 18.0695 133.548 17.8588L133.219 17.7406C132.766 17.5773 132.514 17.1073 132.387 16.6423Z" fill="#314158"/>
<path d="M115.157 21.1306C115.038 20.6931 115.026 20.194 115.316 19.8452L115.499 19.6247C115.884 19.1609 116.543 19.0579 117.144 19.0121C117.274 19.0022 117.404 18.9799 117.534 18.9445C118.641 18.6429 119.294 17.5012 118.992 16.3944C118.691 15.2876 117.549 14.6348 116.442 14.9364C115.335 15.2379 114.683 16.3796 114.984 17.4864C115.11 17.9499 115.131 18.4811 114.824 18.8506L114.681 19.0227C114.302 19.4786 113.652 19.5741 113.06 19.6012C112.91 19.608 112.758 19.6314 112.607 19.6726C111.5 19.9741 110.848 21.1158 111.149 22.2226C111.451 23.3294 112.593 23.9822 113.699 23.6807C113.819 23.6482 113.933 23.6059 114.041 23.555C114.589 23.2968 115.212 23.0546 115.782 23.2599L116.012 23.3427C116.505 23.5205 116.771 24.0426 116.909 24.5487C117.21 25.6555 118.352 26.3083 119.459 26.0067C120.566 25.7052 121.218 24.5635 120.917 23.4567C120.615 22.3499 119.473 21.6971 118.367 21.9986C118.281 22.0219 118.198 22.0503 118.118 22.0833C117.544 22.3203 116.903 22.5579 116.318 22.3472L115.99 22.2291C115.537 22.0658 115.284 21.5957 115.157 21.1306Z" fill="#314158"/>
<path d="M128.92 9.39338C128.482 9.51263 127.983 9.52456 127.634 9.23472L127.414 9.05211C126.95 8.66695 126.847 8.00842 126.802 7.4073C126.792 7.27728 126.77 7.1463 126.734 7.01582C126.432 5.90901 125.291 5.25622 124.184 5.55778C123.077 5.85933 122.424 7.00103 122.726 8.10784C123.027 9.21465 124.169 9.86744 125.276 9.56588C125.739 9.43977 126.269 9.41967 126.638 9.72619L126.811 9.86982C127.267 10.2487 127.363 10.8989 127.39 11.4912C127.397 11.6411 127.421 11.7926 127.462 11.9434C127.763 13.0503 128.905 13.703 130.012 13.4015C131.118 13.0999 131.771 11.9582 131.47 10.8514C131.437 10.7321 131.395 10.618 131.344 10.5098C131.086 9.96172 130.843 9.33851 131.049 8.7685L131.131 8.53866C131.309 8.04501 131.832 7.77966 132.338 7.64174C133.445 7.34018 134.098 6.19848 133.796 5.09167C133.494 3.98486 132.353 3.33208 131.246 3.63363C130.139 3.93518 129.486 5.07689 129.788 6.18369C129.811 6.26909 129.839 6.35179 129.872 6.43155C130.109 7.00645 130.347 7.64746 130.136 8.23246L130.018 8.56092C129.854 9.0143 129.385 9.2667 128.92 9.39338Z" fill="#314158"/>
<path d="M133.18 24.8356C132.743 24.9548 132.306 25.1978 132.153 25.6246L132.056 25.8934C131.851 26.4605 132.097 27.0802 132.363 27.6212C132.42 27.7384 132.467 27.8626 132.503 27.9932C132.805 29.1 132.152 30.2417 131.045 30.5433C129.938 30.8448 128.797 30.1921 128.495 29.0852C128.193 27.9784 128.846 26.8367 129.953 26.5352C130.416 26.4091 130.883 26.1574 131.045 25.7062L131.122 25.4946C131.323 24.9367 131.075 24.3279 130.798 23.8035C130.728 23.6708 130.671 23.5284 130.63 23.3775C130.329 22.2707 130.981 21.129 132.088 20.8275C133.195 20.5259 134.337 21.1787 134.638 22.2855C134.671 22.4047 134.692 22.5243 134.703 22.6432C134.759 23.2465 134.866 23.9065 135.332 24.2937L135.521 24.45C135.924 24.7852 136.509 24.7489 137.015 24.611C138.122 24.3095 139.263 24.9623 139.565 26.0691C139.866 27.1759 139.214 28.3176 138.107 28.6191C137 28.9207 135.858 28.2679 135.557 27.1611C135.533 27.0755 135.516 26.9898 135.504 26.9042C135.416 26.2887 135.296 25.6159 134.818 25.2187L134.55 24.996C134.179 24.6879 133.645 24.7088 133.18 24.8356Z" fill="#314158"/>
</svg>
