<svg width="150" height="60" viewBox="0 0 150 60" fill="none" xmlns="http://www.w3.org/2000/svg">
<path d="M43.9099 12.9761C43.5729 12.9761 43.2988 13.2494 43.2988 13.5873V34.2596C43.2988 39.0366 41.6019 41.1124 37.5526 41.1124C34.7802 41.1124 32.1209 39.9873 29.6092 37.9962C29.2244 37.691 28.6602 37.9584 28.6602 38.4497V44.6838C28.6602 45.0459 28.827 45.4089 29.1405 45.5909C31.6581 47.053 33.8278 47.981 37.5518 48.0884C45.8918 48.3306 50.9798 43.4891 50.9798 35.0393V13.5873C50.9798 13.2503 50.7065 12.9761 50.3687 12.9761H43.9083H43.9099ZM103.985 26.4721C98.8461 25.902 97.3404 25.0192 97.3404 23.0465C97.3404 20.7108 99.7289 19.2571 103.518 19.2571C108.025 19.2571 111.866 21.301 113.532 22.3448C113.919 22.5871 114.419 22.3037 114.419 21.8477V15.6002C114.419 15.2129 114.216 14.8524 113.881 14.6579C111.611 13.34 107.594 12.458 103.623 12.458C94.9024 12.458 89.7096 16.6096 89.7096 23.5143C89.7096 29.8473 93.1352 32.8067 102.013 33.7926C107.257 34.3644 108.865 35.2983 108.865 37.3741C108.865 39.8657 106.633 41.1635 102.428 41.1635C97.2741 41.1635 92.6246 38.7113 90.7458 37.5753C90.3577 37.3406 89.8664 37.6223 89.8664 38.0775V44.3694C89.8664 44.7349 90.0408 45.0837 90.3484 45.279C93.1209 47.0396 97.3496 47.9643 102.687 47.9643C111.513 47.9643 116.496 44.0701 116.496 37.1653C116.496 30.2606 113.071 27.4596 103.985 26.4721ZM80.7945 30.0267C80.579 29.9521 80.5505 29.6612 80.7517 29.5539C82.0076 28.8823 84.7247 26.9139 84.7247 22.4764C84.7247 16.2466 80.5195 12.9761 72.4218 12.9761H58.1847C57.8477 12.9761 57.5735 13.2494 57.5735 13.5873V46.8342C57.5735 47.1712 57.8469 47.4453 58.1847 47.4453H73.7195C81.7661 47.4453 85.9705 44.1757 85.9705 37.8419C85.9705 32.3573 82.3262 30.5465 80.7936 30.0275L80.7945 30.0267ZM65.2588 20.1776C65.2588 19.9848 65.4147 19.8289 65.6076 19.8289H72.3195C75.4323 19.8289 76.9917 20.9707 76.9917 23.3064C76.9917 25.6421 75.3812 26.8879 71.7997 26.8879H65.6084C65.4156 26.8879 65.2596 26.7319 65.2596 26.5391V20.1785L65.2588 20.1776ZM73.4613 40.5934H65.6076C65.4147 40.5934 65.2588 40.4375 65.2588 40.2446V33.6744C65.2588 33.4816 65.4147 33.3257 65.6076 33.3257H72.9927C76.523 33.3257 78.1847 34.6234 78.1847 37.0103C78.1847 39.3971 76.627 40.5934 73.4613 40.5934Z" fill="#314158"/>
<path d="M146.525 10.0781C146.405 9.27411 146.269 8.47348 146.117 7.67871H148.138C148.281 8.43072 148.407 9.18441 148.521 9.94229C149.762 18.237 149.325 26.5972 147.221 34.7888C145.591 41.1318 143.038 47.0825 139.604 52.5402C138.754 53.8925 137.851 55.2138 136.895 56.504H134.662C137.496 52.7691 139.872 48.7584 141.773 44.5104C143.201 41.323 144.36 38.0022 145.243 34.5624C147.318 26.489 147.748 18.2504 146.524 10.0764L146.525 10.0781Z" fill="#314158"/>
<path d="M139.2 15.3468C138.45 10.335 137.082 5.48511 135.117 0.854004H140.027C141.759 5.29564 142.987 9.91585 143.7 14.6735C144.978 23.2097 144.528 31.8122 142.363 40.2419C141.993 41.6855 141.574 43.1091 141.11 44.5108C140.201 47.2707 139.11 49.9501 137.844 52.5406C137.189 53.887 136.485 55.2083 135.736 56.5044H130.408C133.824 51.1708 136.357 45.3408 137.956 39.1109C139.293 33.9123 139.926 28.6432 139.855 23.3707C139.82 20.6955 139.602 18.0178 139.201 15.3476L139.2 15.3468Z" fill="#314158"/>
<path d="M113.038 59.6986C115.907 57.1634 118.523 54.3481 120.866 51.2764C125.668 44.9803 129.11 37.8651 131.099 30.1262C133.087 22.389 133.501 14.495 132.327 6.66385C132.033 4.70124 131.643 2.76379 131.157 0.854004H137.397C137.767 2.47372 138.078 4.11104 138.325 5.76596C139.203 11.6286 139.276 17.5215 138.547 23.3707C138.201 26.1381 137.677 28.8963 136.972 31.6369C134.781 40.1656 130.986 48.0101 125.687 54.9551C124.429 56.605 123.098 58.187 121.701 59.6986H113.037H113.038Z" fill="#314158"/>
<path d="M3.52945 50.4757C3.64934 51.2797 3.78599 52.0803 3.93773 52.8751H1.91644C1.77392 52.1231 1.64817 51.3694 1.53415 50.6115C0.292538 42.3168 0.729324 33.9567 2.83361 25.765C4.46338 19.422 7.01703 13.4713 10.451 8.01358C11.3002 6.6613 12.204 5.34004 13.1597 4.0498H15.3931C12.5586 7.7847 10.1827 11.7954 8.28212 16.0434C6.85355 19.2308 5.69494 22.5516 4.8113 25.9914C2.7372 34.0648 2.30628 42.3034 3.53029 50.4774L3.52945 50.4757Z" fill="#314158"/>
<path d="M10.8543 45.206C11.6047 50.2177 12.9729 55.0676 14.938 59.6987H10.0277C8.29566 55.2571 7.06746 50.6369 6.35486 45.8792C5.07636 37.343 5.52656 28.7406 7.69204 20.3109C8.06176 18.8672 8.48094 17.4437 8.94455 16.0419C9.85418 13.282 10.9449 10.6026 12.2108 8.01211C12.8656 6.6657 13.5698 5.34445 14.3184 4.04834H19.6471C16.2307 9.38199 13.6981 15.212 12.0985 21.4418C10.7621 26.6405 10.1283 31.9096 10.1996 37.182C10.2348 39.8573 10.4528 42.535 10.8535 45.2052L10.8543 45.206Z" fill="#314158"/>
<path d="M37.0171 0.85498C34.1482 3.39018 31.5326 6.2054 29.1893 9.27715C24.3872 15.5732 20.9449 22.6884 18.9563 30.4273C16.9685 38.1646 16.5544 46.0586 17.7281 53.8897C18.0224 55.8523 18.4122 57.7898 18.8976 59.6995H12.6577C12.288 58.0798 11.9769 56.4425 11.7296 54.7876C10.8519 48.9249 10.7789 43.0321 11.5083 37.1828C11.8537 34.4154 12.3785 31.6572 13.0827 28.9166C15.2742 20.388 19.0695 12.5434 24.3679 5.59843C25.6263 3.94853 26.9568 2.36655 28.3543 0.85498H37.0179H37.0171Z" fill="#314158"/>
</svg>
