<svg width="155" height="51" viewBox="0 0 155 51" fill="none" xmlns="http://www.w3.org/2000/svg">
<path d="M73.5819 31.2171L71.8484 39.8739C71.0684 43.3716 68.9883 45.7326 64.7415 45.7326C59.8013 45.7326 58.5012 42.6721 59.6279 38.3C61.1013 32.179 66.0415 30.3427 73.5819 31.2171ZM81.2955 18.8003L76.0953 19.1501L74.4486 27.632C72.4551 27.5445 71.8484 27.4571 69.4217 27.4571C62.0547 27.4571 55.6411 30.605 53.9077 37.8627C52.3476 44.5084 56.0744 49.58 64.2214 49.58C72.5418 49.58 76.0953 45.2079 77.3954 39.0869L81.2955 18.8003Z" fill="#314158"/>
<path d="M24.5277 31.5668C16.9007 30.8673 10.2271 31.4794 10.1404 34.1027C9.9671 38.0376 22.7943 34.6273 22.5343 41.8851C22.1876 52.553 4.33352 50.1046 0 48.7056L0.780034 45.5576C8.40703 46.7818 16.3807 46.8693 16.5541 42.672C16.7274 38.2125 3.90017 42.2348 4.16018 34.9771C4.42019 29.5557 12.3939 26.6701 25.5678 28.5938L24.5277 31.5668Z" fill="#314158"/>
<path d="M45.2426 38.8249C44.1159 43.2845 40.649 46.0826 36.4889 46.0826C32.1553 46.0826 30.1619 43.5468 31.3753 38.8249C32.502 34.3654 36.0555 31.3923 40.2157 31.3923C44.2892 31.3923 46.3693 34.3654 45.2426 38.8249ZM40.8224 27.7197C33.1954 27.7197 27.0418 32.1793 25.5684 38.8249C24.095 45.4705 28.1685 49.9301 35.7955 49.9301C43.4225 49.9301 49.5761 45.4705 51.0495 38.8249C52.5229 32.1793 48.4494 27.7197 40.8224 27.7197Z" fill="#314158"/>
<path d="M128.88 49.8421H122.206C118.219 45.9946 110.506 37.2503 104.872 27.9814H109.726C115.186 35.4141 128.88 49.8421 128.88 49.8421Z" fill="#314158"/>
<path d="M135.899 6.3833L138.932 0L139.799 6.55818L146.039 4.28468L141.619 9.96844L146.386 13.641L140.059 14.1657L139.712 20.8987L136.245 15.9145L131.045 20.6364L133.039 13.9033L126.972 13.1164L132.865 9.70611L130.438 3.93491L135.899 6.3833Z" fill="#314158"/>
<path d="M148.812 38.9119C147.686 43.4589 144.132 46.2571 139.885 46.2571C135.465 46.2571 133.472 43.6338 134.685 38.9119C135.812 34.3649 139.365 31.3919 143.612 31.3919C147.859 31.3044 149.939 34.3649 148.812 38.9119ZM144.305 27.6318C136.592 27.6318 130.351 32.1788 128.791 38.9119C127.231 45.645 131.391 50.192 139.192 50.192C146.906 50.192 153.146 45.645 154.706 38.9119C156.179 32.1788 152.019 27.6318 144.305 27.6318Z" fill="#314158"/>
<path d="M94.9041 31.0425C97.3309 31.0425 98.631 31.917 98.631 33.5784C98.631 38.0379 90.0506 37.7756 86.2371 36.9886C87.5372 33.5784 90.5706 31.0425 94.9041 31.0425ZM103.745 33.316C103.745 30.0807 101.231 27.7197 95.4242 27.7197C86.0638 27.7197 79.9102 33.8407 79.9102 41.4482C79.9102 46.345 83.9837 50.4548 91.3507 50.4548C96.4642 50.4548 99.8444 47.9189 99.8444 47.9189C93.3441 48.6185 85.3704 47.9189 85.3704 40.9235C85.3704 40.6612 85.3704 40.3989 85.3704 40.0491C94.2975 41.9728 103.745 39.6993 103.745 33.316Z" fill="#314158"/>
<path d="M99.9292 47.9187C112.41 40.9233 123.33 30.1679 131.044 20.8115C125.497 38.3 112.063 47.7438 99.9292 47.9187Z" fill="#314158"/>
</svg>
