<svg width="162" height="70" viewBox="0 0 162 70" fill="none" xmlns="http://www.w3.org/2000/svg">
<g clip-path="url(#clip0_10087_176)">
<path d="M97.7846 14.0015H80.0325V15.6285C80.7438 15.6848 81.4507 15.7864 82.149 15.9327C82.6998 16.0333 83.2177 16.2671 83.6577 16.6137C84.7201 17.5179 84.6978 19.212 84.6978 22.2791V42.8727C84.6978 47.0589 85.0715 52.9978 79.1402 52.9197C76.5942 52.8862 73.9841 51.0721 73.1726 47.7594H71.1313C71.9958 53.3104 74.9489 57.0752 82.11 57.0752H82.1435C88.2254 57.0752 93.6547 54.2844 93.6464 44.7732V22.2791C93.6464 19.2092 93.6241 17.5877 94.6837 16.6807C95.3697 16.103 95.9274 15.8155 97.7846 15.6285V14.0015Z" fill="#314158"/>
<path d="M118.164 14.0015H100.389V15.6285C102.246 15.8099 102.807 16.0946 103.484 16.6751C104.335 17.4007 104.488 18.5896 104.516 20.6102C104.516 21.2241 104.516 21.9051 104.516 22.6698V47.3017C104.516 48.0664 104.516 48.7474 104.516 49.3613C104.488 51.3847 104.335 52.5708 103.484 53.2964C102.807 53.8769 102.246 54.1616 100.389 54.343V55.9784H127.235L130.065 47.7538H127.996C125.933 52.2722 122.742 52.7997 119.831 52.7997C117.453 52.7997 115.869 52.6657 114.745 51.9373C113.839 51.3568 113.501 49.8274 113.484 47.2347V22.2791C113.484 19.2092 113.462 17.5179 114.522 16.6137C115.199 16.0332 116.315 15.8183 118.172 15.6369V14.0015H118.164Z" fill="#314158"/>
<path d="M147.767 14.0015H130.001V15.6285C131.855 15.8099 132.416 16.0946 133.094 16.6751C133.944 17.4007 134.097 18.5896 134.125 20.6102C134.125 21.2241 134.125 21.9051 134.125 22.6698V47.3017C134.125 48.0664 134.125 48.7474 134.125 49.3613C134.097 51.3847 133.944 52.5708 133.094 53.2964C132.416 53.8769 131.855 54.1616 130.001 54.343V55.9784H156.844L159.677 47.7538H157.591C155.528 52.2722 152.338 52.7997 149.426 52.7997C147.048 52.7997 145.464 52.6657 144.34 51.9373C143.434 51.3568 143.096 49.8274 143.079 47.2347V22.2791C143.079 19.2092 143.057 17.5179 144.12 16.6137C144.797 16.0332 145.913 15.8183 147.767 15.6369V14.0015Z" fill="#314158"/>
<path d="M28.6194 68.6545C29.4455 68.2709 30.2368 67.8162 30.9842 67.2954C31.1431 67.1838 31.3076 67.0805 31.461 66.9633C32.4012 66.2524 33.2782 65.4615 34.0823 64.5994C35.1441 63.4701 36.1035 62.2485 36.9489 60.949C37.6213 59.9226 38.2394 58.8616 38.8006 57.7703C40.9428 53.4579 42.3921 48.8344 43.095 44.0701C43.5541 41.0686 43.7816 38.0362 43.7754 34.9998C43.7816 31.9625 43.5541 28.9292 43.095 25.9268C42.3923 21.1634 40.943 16.5407 38.8006 12.2294C38.5468 11.7327 38.2763 11.2415 38.0002 10.7559C36.8465 12.8873 35.8808 15.1154 35.114 17.4148C36.5088 21.6404 37.3597 26.0266 37.6461 30.4675C37.7493 31.9662 37.7883 33.476 37.7911 34.9859C37.7911 36.4957 37.7548 38.0056 37.6517 39.5043C37.3171 44.9312 36.1109 50.2687 34.0795 55.3115C33.276 57.2617 32.3174 59.1441 31.2128 60.9407C30.9535 61.3649 30.7109 61.7974 30.4348 62.2105C29.8771 63.0477 29.2636 63.8682 28.6166 64.6692C27.8805 65.5884 27.0909 66.4635 26.2519 67.2898C25.3621 68.1646 24.4065 68.9698 23.3936 69.6983C23.3128 69.7569 23.2375 69.8183 23.1538 69.8769V69.9718C25.046 69.9077 26.9055 69.4596 28.6194 68.6545Z" fill="#314158"/>
<path d="M39.5424 68.6545C40.3694 68.2709 41.1615 67.8162 41.9099 67.2953C42.066 67.1837 42.2306 67.0804 42.3867 66.9632C45.5545 64.5882 47.936 61.2643 49.7235 57.7535C51.867 53.4416 53.3164 48.8179 54.0179 44.0533C54.477 41.0518 54.7045 38.0194 54.6983 34.983C54.7041 31.9458 54.4775 28.9126 54.0207 25.91C53.3182 21.1462 51.8679 16.5234 49.7235 12.2126C48.0726 8.97804 45.9087 5.90254 43.0894 3.58057C42.1923 4.55274 41.3542 5.57788 40.5797 6.65049C40.8493 7.0226 41.1114 7.39471 41.3661 7.76682C45.8724 14.4648 48.0336 22.4829 48.583 30.4731C48.6871 31.9727 48.7382 33.4788 48.7363 34.9914C48.7363 36.5013 48.6861 38.0111 48.583 39.5098C48.0252 47.4999 45.8697 55.5208 41.3661 62.216C40.8084 63.0533 40.1949 63.8738 39.5479 64.6747C38.8112 65.5927 38.0226 66.4676 37.186 67.2953C36.2955 68.1694 35.34 68.9746 34.3277 69.7038L34.0879 69.8824V69.9773C35.9767 69.91 37.8323 69.46 39.5424 68.6545Z" fill="#314158"/>
<path d="M53.3094 66.9577C56.48 64.5855 58.8587 61.2588 60.6462 57.748C62.7906 53.4362 64.2409 48.8125 64.9434 44.0478C65.403 41.0464 65.6296 38.0139 65.621 34.9775C65.6273 31.9402 65.3998 28.9069 64.9406 25.9045C64.2381 21.1407 62.7878 16.5179 60.6434 12.2071C58.8559 8.70462 56.4773 5.37794 53.3066 2.99736C50.9447 1.24192 47.9804 0.0753526 45.0078 0V0.0948884C47.9024 2.11266 50.348 4.87559 52.286 7.76131C56.7924 14.4593 58.9535 22.4774 59.5057 30.4676C59.6061 31.9672 59.6572 33.4733 59.659 34.9859C59.6609 36.4985 59.6098 38.0047 59.5057 39.5043C58.9479 47.4944 56.7924 55.5153 52.286 62.2105C50.334 65.0962 47.9024 67.8592 45.0078 69.8769V69.9718C47.9804 69.8965 50.9447 68.7299 53.3094 66.9577Z" fill="#314158"/>
<path d="M39.5447 1.32007C38.7186 1.70461 37.9273 2.1603 37.18 2.68199C37.0211 2.79084 36.8566 2.89689 36.7032 3.0141C35.7637 3.72482 34.8868 4.51472 34.0819 5.37515C33.0207 6.50599 32.0614 7.72848 31.2153 9.02835C30.5426 10.0575 29.9245 11.1213 29.3636 12.2155C27.2212 16.5268 25.7719 21.1494 25.0692 25.9129C24.61 28.9153 24.3826 31.9486 24.3888 34.9859C24.3826 38.0223 24.6101 41.0547 25.0692 44.0561C25.7706 48.8252 27.22 53.4536 29.3636 57.7703C29.6174 58.2671 29.8879 58.7582 30.164 59.2438C31.3196 57.1085 32.2853 54.8756 33.0501 52.571C31.6525 48.3458 30.7988 43.9595 30.5097 39.5182C30.4066 38.0195 30.3675 36.5097 30.3647 34.9999C30.3647 33.49 30.401 31.9802 30.5042 30.4815C30.8387 25.0546 32.0449 19.7171 34.0763 14.6742C34.8815 12.7185 35.842 10.8305 36.9486 9.02835C37.2079 8.60694 37.4505 8.17436 37.7266 7.76131C38.2843 6.92406 38.8978 6.10356 39.5447 5.30259C40.2809 4.38338 41.0705 3.50833 41.9095 2.68199C42.7989 1.80851 43.7546 1.00514 44.7678 0.279084C44.8486 0.220476 44.9239 0.156287 45.0076 0.10047V0C43.1161 0.0652357 41.2576 0.514338 39.5447 1.32007Z" fill="#314158"/>
<path d="M28.6219 1.32006C27.7949 1.7046 27.0027 2.16029 26.2544 2.68199C26.0983 2.79083 25.9337 2.89689 25.7776 3.0141C22.6098 5.38631 20.2283 8.71299 18.4408 12.2239C16.2973 16.5347 14.8479 21.1576 14.1464 25.9213C13.6872 28.9236 13.4598 31.9569 13.466 34.9943C13.4589 38.0306 13.6854 41.063 14.1436 44.0645C14.8469 48.8308 16.2971 53.4563 18.4408 57.7703C20.0917 61.0049 22.2556 64.0804 25.0749 66.4023C25.9709 65.4341 26.8089 64.4137 27.5846 63.3464C27.315 62.9743 27.0529 62.6021 26.7982 62.23C22.2946 55.532 20.1307 47.514 19.5813 39.5238C19.4782 38.0251 19.428 36.5153 19.428 35.0054C19.428 33.4956 19.4782 31.9858 19.5813 30.4871C20.1391 22.4969 22.2946 14.4761 26.7982 7.78085C27.3559 6.9436 27.9694 6.12309 28.6164 5.32212C29.3531 4.40422 30.1417 3.52926 30.9783 2.70153C31.87 1.82241 32.8274 1.01258 33.8422 0.279083C33.923 0.220476 34.0011 0.156287 34.082 0.10047V0C32.1915 0.0656114 30.3339 0.514705 28.6219 1.32006Z" fill="#314158"/>
<path d="M14.8548 3.0141C11.6842 5.38631 9.30552 8.71299 7.52919 12.2155C5.38093 16.5256 3.92687 21.1484 3.22083 25.9129C2.76122 28.9152 2.53467 31.9486 2.5432 34.9859C2.53701 38.0223 2.76449 41.0547 3.22362 44.0561C3.92733 48.8261 5.38048 53.4547 7.52919 57.7703C9.31667 61.2728 11.6953 64.5995 14.866 66.9801C17.2307 68.7522 20.1949 69.9188 23.1676 69.9942V69.8993C20.2647 67.8592 17.8191 65.0962 15.8949 62.2105C11.3886 55.5125 9.22744 47.4944 8.6753 39.5043C8.57491 38.0056 8.52471 36.4958 8.52471 34.9859C8.52471 33.4761 8.57491 31.9662 8.6753 30.4676C9.20234 22.4774 11.3746 14.4565 15.8949 7.76131C17.8191 4.87559 20.2647 2.11266 23.1592 0.0948884V0C20.1838 0.0753526 17.2195 1.24192 14.8548 3.0141Z" fill="#314158"/>
<path d="M35.998 66.3884C36.896 65.417 37.7342 64.3918 38.5077 63.3184C38.2363 62.9463 37.9742 62.5742 37.7213 62.2021C37.4425 61.7891 37.2027 61.3648 36.9433 60.9351C36.0972 62.2349 35.1379 63.4574 34.0767 64.5883C34.6783 65.2239 35.3181 65.8223 35.9924 66.38" fill="#314158"/>
<path d="M41.9096 67.29C41.1626 67.8122 40.3714 68.2679 39.5449 68.652C41.2569 69.4573 43.1144 69.9064 45.005 69.972V69.8771C43.9035 69.102 42.8681 68.2366 41.9096 67.29Z" fill="#314158"/>
<path d="M33.0502 69.8995C33.3458 69.8688 33.6414 69.8185 33.9342 69.7683C33.6358 69.5562 33.3402 69.3385 33.0502 69.1097C32.3292 68.5408 31.6394 67.9334 30.9839 67.29C30.2365 67.8117 29.4453 68.2674 28.6191 68.652C29.7498 69.172 30.9416 69.5471 32.1662 69.7683C32.4618 69.8185 32.7546 69.8688 33.0502 69.8995ZM34.082 69.972V69.8771C34.0318 69.8409 33.9844 69.8018 33.9342 69.7683C33.6553 69.8185 33.3458 69.8688 33.0502 69.8995C33.3932 69.9358 33.739 69.9637 34.082 69.972Z" fill="#314158"/>
<path d="M32.1665 3.5835C31.2692 4.5556 30.4312 5.58075 29.6567 6.65342C29.9263 7.02553 30.1884 7.39764 30.4431 7.76975C30.722 8.18279 30.9618 8.607 31.2239 9.03679C32.0691 7.73697 33.0275 6.51447 34.0878 5.38359C33.4869 4.74727 32.847 4.14888 32.172 3.59187" fill="#314158"/>
<path d="M26.2573 2.68199C27.0042 2.15971 27.7955 1.70399 28.622 1.32007C26.909 0.514999 25.0506 0.0659299 23.1592 0V0.0948884C24.2616 0.870033 25.2979 1.73537 26.2573 2.68199Z" fill="#314158"/>
<path d="M39.5449 1.32007C38.4142 0.799991 37.2224 0.424912 35.9978 0.203731C35.6938 0.153496 35.415 0.103261 35.1138 0.0725617C34.7708 0.0362809 34.4278 0.00837251 34.082 0V0.0948884C34.1322 0.131169 34.1796 0.170241 34.2298 0.203731C34.5282 0.415834 34.8238 0.63352 35.1138 0.859577C35.8349 1.42939 36.5246 2.03774 37.1801 2.68199C37.9275 2.1603 38.7187 1.70461 39.5449 1.32007Z" fill="#314158"/>
</g>
<defs>
<clipPath id="clip0_10087_176">
<rect width="162" height="69.9718" fill="white"/>
</clipPath>
</defs>
</svg>
