<svg width="230" height="72" viewBox="0 0 230 72" fill="none" xmlns="http://www.w3.org/2000/svg">
<g clip-path="url(#clip0_10087_209)">
<path d="M66.8291 26.2752L60.6179 14.877H69.2796L75.3189 25.9333L75.5065 26.2752L75.3189 26.6171L69.2796 37.6692H60.6179L66.8291 26.2752ZM52.1321 26.2752L45.9214 14.877H54.5823L60.6224 25.9333L60.8133 26.2752L60.6224 26.6171L54.5823 37.6692H45.9214L52.1321 26.2752Z" fill="#314158"/>
<path d="M0 0H25.3747V7.87883H8.4583V14.8952H25.3747V22.7738H8.4583V37.669H0V0Z" fill="#314158"/>
<path d="M15.7188 14.877H41.1496V22.7675H24.1958V29.7943H41.1496V37.6847H24.1958V52.6021H15.7188V14.877Z" fill="#314158"/>
<path d="M85.968 27.2828C86.0724 28.6386 86.6197 29.7335 87.6094 30.5679C88.6261 31.3761 89.9678 31.7801 91.6357 31.7801C93.0167 31.7801 94.1372 31.4933 94.9973 30.9198C95.8832 30.3201 96.3267 29.4989 96.3267 28.456C96.3267 27.7261 96.0785 27.1525 95.5839 26.7353C95.1146 26.2922 94.437 25.9531 93.5512 25.7185C92.6911 25.4578 91.3494 25.1449 89.5249 24.7799C87.7268 24.4411 86.2155 24.0108 84.9911 23.4893C83.7662 22.942 82.763 22.1467 81.981 21.1038C81.2254 20.0348 80.8476 18.6271 80.8476 16.8802C80.8476 15.2898 81.2776 13.869 82.1376 12.6175C83.0235 11.3661 84.2355 10.3883 85.7726 9.68445C87.3361 8.95431 89.0949 8.58936 91.0496 8.58936C93.056 8.58936 94.8541 8.96745 96.4434 9.72352C98.0591 10.4534 99.3233 11.4703 100.235 12.7739C101.173 14.0775 101.655 15.5505 101.681 17.1931H95.9354C95.8051 16.0199 95.31 15.0813 94.4499 14.3773C93.5905 13.6474 92.4565 13.2822 91.0496 13.2822C89.7466 13.2822 88.7042 13.5561 87.9227 14.1036C87.1407 14.6511 86.75 15.4333 86.75 16.4501C86.75 17.18 86.9841 17.7536 87.4534 18.1708C87.9227 18.5619 88.5868 18.8878 89.4469 19.1485C90.3069 19.3831 91.6357 19.6699 93.4338 20.0087C95.2578 20.3478 96.7954 20.778 98.0462 21.2994C99.297 21.7947 100.3 22.5638 101.056 23.6067C101.838 24.6234 102.229 25.9922 102.229 27.713C102.229 29.3817 101.773 30.8808 100.86 32.2105C99.9482 33.5141 98.6716 34.5438 97.0301 35.3C95.4144 36.056 93.5905 36.4341 91.5577 36.4341C89.3688 36.4341 87.4141 36.0431 85.6946 35.2607C84.0009 34.4525 82.6721 33.3444 81.7076 31.9366C80.7431 30.5288 80.248 28.9513 80.2222 27.2047L85.968 27.2828Z" fill="#314158"/>
<path d="M119.522 23.8168C119.34 22.5928 118.833 21.6553 118.001 21.0042C117.195 20.3273 116.168 19.9887 114.92 19.9887C113.725 19.9887 112.711 20.3403 111.879 21.0434C111.073 21.7203 110.592 22.645 110.436 23.8168H119.522ZM104.586 26.1995C104.586 24.1162 105.002 22.3063 105.834 20.7699C106.692 19.2074 107.875 18.0095 109.383 17.1763C110.917 16.3168 112.685 15.8872 114.687 15.8872C116.715 15.8872 118.495 16.2908 120.029 17.0981C121.589 17.8793 122.798 18.9992 123.656 20.4575C124.54 21.8898 124.995 23.5825 125.021 25.5355C125.021 26.2387 124.969 26.8637 124.865 27.4106H110.319V27.5667C110.449 29.025 110.917 30.171 111.723 31.0042C112.529 31.8375 113.634 32.2543 115.038 32.2543C116.155 32.2543 117.078 32.0199 117.807 31.5511C118.56 31.0563 119.054 30.3402 119.289 29.4027H124.709C124.501 30.7308 123.994 31.9287 123.188 32.9965C122.382 34.064 121.316 34.9105 119.99 35.5354C118.664 36.1343 117.144 36.4339 115.428 36.4339C113.192 36.4339 111.255 36.0172 109.617 35.1839C108.005 34.3505 106.757 33.1657 105.873 31.6293C105.015 30.0666 104.586 28.2569 104.586 26.1995Z" fill="#314158"/>
<path d="M137.628 31.6557C139.111 31.6557 140.294 31.1347 141.177 30.0928C142.061 29.0509 142.504 27.6962 142.504 26.0292C142.504 24.3361 142.061 22.9553 141.177 21.8873C140.294 20.8193 139.111 20.2854 137.628 20.2854C136.146 20.2854 134.95 20.8193 134.04 21.8873C133.156 22.9293 132.714 24.297 132.714 25.9901C132.714 27.6833 133.156 29.0509 134.04 30.0928C134.95 31.1347 136.146 31.6557 137.628 31.6557ZM147.925 16.1045V35.6022C147.925 38.2331 147.054 40.33 145.312 41.8929C143.57 43.4558 140.866 44.2372 137.199 44.2372C134.365 44.2372 132.077 43.6121 130.335 42.3618C128.593 41.1114 127.657 39.3402 127.527 37.0478H133.065C133.325 38.0117 133.832 38.7541 134.586 39.2751C135.366 39.796 136.38 40.0565 137.628 40.0565C139.188 40.0565 140.397 39.6658 141.256 38.8843C142.114 38.1029 142.543 36.9436 142.543 35.4068V33.2969C141.087 35.1461 139.019 36.071 136.341 36.071C134.573 36.071 132.987 35.6542 131.583 34.8205C130.179 33.9871 129.074 32.8149 128.268 31.304C127.488 29.7672 127.098 27.9828 127.098 25.9509C127.098 23.9453 127.488 22.1739 128.268 20.6371C129.074 19.1002 130.179 17.9149 131.583 17.0813C133.013 16.2479 134.612 15.8311 136.38 15.8311C139.006 15.8311 141.087 16.8469 142.621 18.8788L143.089 16.1045H147.925Z" fill="#314158"/>
<path d="M170.886 16.1118V36.1993H166.004L165.496 33.7765C164.793 34.6101 163.972 35.2614 163.035 35.7305C162.098 36.1993 160.952 36.434 159.598 36.434C157.255 36.434 155.341 35.7175 153.857 34.2844C152.373 32.8254 151.63 30.4025 151.63 27.0155V16.1118H157.138V26.351C157.138 28.1747 157.45 29.5557 158.075 30.4937C158.726 31.4056 159.715 31.8615 161.043 31.8615C162.423 31.8615 163.491 31.3533 164.246 30.3373C165.001 29.2952 165.379 27.8491 165.379 25.9992V16.1118H170.886Z" fill="#314158"/>
<path d="M186.942 16.1118V21.1167H184.763C183.206 21.1167 182.064 21.5858 181.338 22.5243C180.611 23.4627 180.247 24.7399 180.247 26.3561V36.2095H174.76V16.1118H179.742L180.247 19.1226C180.845 18.132 181.583 17.389 182.466 16.8938C183.348 16.3725 184.529 16.1118 186.008 16.1118H186.942Z" fill="#314158"/>
<path d="M198.619 31.9417C200.158 31.9417 201.372 31.4079 202.26 30.3402C203.173 29.2725 203.63 27.8792 203.63 26.1605C203.63 24.4417 203.173 23.0485 202.26 21.9808C201.372 20.9131 200.158 20.3793 198.619 20.3793C197.104 20.3793 195.891 20.9131 194.977 21.9808C194.09 23.0485 193.646 24.4417 193.646 26.1605C193.646 27.8792 194.09 29.2725 194.977 30.3402C195.891 31.4079 197.104 31.9417 198.619 31.9417ZM198.619 36.4339C196.504 36.4339 194.638 36.0172 193.02 35.1839C191.428 34.3244 190.188 33.1135 189.301 31.5511C188.439 29.9886 188.008 28.1918 188.008 26.1605C188.008 24.1291 188.439 22.3324 189.301 20.7699C190.188 19.2074 191.428 18.0095 193.02 17.1761C194.638 16.3168 196.504 15.8872 198.619 15.8872C200.733 15.8872 202.586 16.3168 204.178 17.1761C205.796 18.0095 207.036 19.2074 207.898 20.7699C208.785 22.3324 209.229 24.1291 209.229 26.1605C209.229 28.2177 208.785 30.0276 207.898 31.5901C207.036 33.1265 205.796 34.3244 204.178 35.1839C202.586 36.0172 200.733 36.4339 198.619 36.4339Z" fill="#314158"/>
<path d="M216.546 29.5273C216.624 30.4117 217.055 31.127 217.837 31.6734C218.619 32.2197 219.623 32.4928 220.848 32.4928C222.021 32.4928 222.947 32.3108 223.625 31.9466C224.303 31.5564 224.642 31.0101 224.642 30.3076C224.642 29.7874 224.485 29.3972 224.173 29.137C223.86 28.8769 223.416 28.6948 222.843 28.5908C222.269 28.4607 221.33 28.3177 220.027 28.1616C218.254 27.9275 216.781 27.6282 215.608 27.264C214.434 26.8999 213.496 26.3275 212.792 25.5471C212.088 24.7667 211.736 23.7262 211.736 22.4255C211.736 21.1248 212.088 19.9803 212.792 18.9917C213.522 17.9772 214.539 17.1967 215.842 16.6505C217.146 16.1041 218.645 15.8311 220.34 15.8311C223.077 15.8571 225.281 16.4424 226.949 17.587C228.644 18.7315 229.556 20.3184 229.687 22.3475H224.446C224.368 21.593 223.964 20.9818 223.234 20.5135C222.53 20.0192 221.617 19.772 220.496 19.772C219.453 19.772 218.606 19.9671 217.954 20.3573C217.328 20.7476 217.016 21.2678 217.016 21.9182C217.016 22.3865 217.185 22.7377 217.524 22.9718C217.863 23.2059 218.306 23.375 218.854 23.4792C219.401 23.5832 220.314 23.7001 221.591 23.8302C224.303 24.1424 226.376 24.7277 227.81 25.5863C229.269 26.4186 230 27.8625 230 29.9175C230 31.2182 229.609 32.3627 228.827 33.3513C228.07 34.3397 227.001 35.1072 225.619 35.6536C224.264 36.1738 222.687 36.4339 220.887 36.4339C218.098 36.4339 215.829 35.8226 214.082 34.5999C212.336 33.3513 211.41 31.6604 211.306 29.5273H216.546Z" fill="#314158"/>
<path d="M169.861 61.4918L171.742 64.3049C172.262 65.0819 172.65 65.5725 172.902 65.7774C173.153 65.9829 173.473 66.0957 173.861 66.1176V66.3562H170.097V66.1176C170.346 66.1131 170.531 66.0867 170.652 66.0407C170.743 66.0008 170.818 65.943 170.875 65.8639C170.935 65.7842 170.963 65.7028 170.963 65.6208C170.963 65.5214 170.944 65.4243 170.904 65.3249C170.875 65.252 170.756 65.0622 170.549 64.7574L169.058 62.5186L167.232 64.8522C167.04 65.1043 166.923 65.2722 166.884 65.3558C166.846 65.44 166.826 65.5282 166.826 65.6185C166.826 65.7555 166.884 65.8706 167.001 65.961C167.117 66.0536 167.338 66.1047 167.666 66.1176V66.3562H164.557V66.1176C164.775 66.0957 164.965 66.0514 165.124 65.9812C165.39 65.8706 165.646 65.7179 165.887 65.5282C166.127 65.3384 166.403 65.0471 166.714 64.6541L168.749 62.0532L167.058 59.5095C166.588 58.8202 166.189 58.3677 165.863 58.1538C165.536 57.9371 165.159 57.8248 164.731 57.8113V57.5728H168.794V57.8113C168.449 57.8248 168.214 57.8798 168.086 57.9814C167.958 58.0808 167.896 58.1914 167.896 58.3127C167.896 58.4738 167.997 58.7079 168.205 59.0166L169.55 61.0286L171.094 59.0543C171.274 58.8202 171.384 58.659 171.426 58.5731C171.466 58.4867 171.488 58.3963 171.488 58.3059C171.488 58.2155 171.462 58.1336 171.409 58.0651C171.345 57.9747 171.264 57.9107 171.164 57.8731C171.065 57.8355 170.86 57.8158 170.551 57.8113V57.5728H173.659V57.8113C173.412 57.8248 173.211 57.8619 173.056 57.9281C172.825 58.0275 172.611 58.1622 172.417 58.3301C172.223 58.4979 171.949 58.8095 171.597 59.262L169.861 61.4918ZM160.57 62.9514L159.093 59.4079L157.575 62.9514H160.57ZM160.769 63.4286H157.371L156.784 64.804C156.638 65.1442 156.563 65.4002 156.563 65.568C156.563 65.7005 156.627 65.8195 156.755 65.9211C156.881 66.0205 157.157 66.0867 157.578 66.1176V66.3562H154.812V66.1176C155.178 66.0536 155.415 65.97 155.522 65.8661C155.742 65.6584 155.986 65.2368 156.252 64.603L159.338 57.374H159.556L162.606 64.6805C162.851 65.2677 163.073 65.6472 163.274 65.824C163.475 65.9986 163.752 66.0957 164.112 66.1176V66.3562H160.654V66.1176C161.003 66.1002 161.238 66.0424 161.362 65.943C161.485 65.8442 161.545 65.7224 161.545 65.5792C161.545 65.3889 161.459 65.0886 161.287 64.6782L160.769 63.4286ZM140.299 61.8387C140.381 61.8387 140.451 61.8387 140.511 61.841C140.571 61.8432 140.619 61.8455 140.656 61.8455C141.483 61.8455 142.108 61.6641 142.527 61.302C142.948 60.9377 143.157 60.4762 143.157 59.9154C143.157 59.3681 142.988 58.9218 142.65 58.5776C142.311 58.2352 141.861 58.0628 141.303 58.0628C141.056 58.0628 140.721 58.1027 140.299 58.1824V61.8387ZM146.523 66.3562H144.174L141.195 62.2491C140.981 62.2581 140.807 62.2626 140.672 62.2626C140.617 62.2626 140.558 62.2603 140.496 62.2581C140.432 62.2558 140.368 62.2536 140.299 62.2491V64.8062C140.299 65.3581 140.359 65.7005 140.48 65.833C140.643 66.0227 140.888 66.1176 141.215 66.1176H141.556V66.3562H137.799V66.1176H138.127C138.498 66.1176 138.762 65.9964 138.921 65.7555C139.011 65.623 139.056 65.3053 139.056 64.8062V59.1227C139.056 58.5709 138.996 58.2285 138.875 58.096C138.707 57.9062 138.458 57.8113 138.127 57.8113H137.799V57.5728H140.992C141.925 57.5728 142.611 57.6412 143.052 57.776C143.495 57.913 143.87 58.1645 144.176 58.5288C144.485 58.8931 144.639 59.3282 144.639 59.834C144.639 60.3746 144.463 60.8428 144.112 61.2403C143.76 61.6378 143.217 61.9179 142.478 62.0835L144.293 64.5985C144.708 65.1773 145.063 65.5635 145.361 65.7533C145.656 65.9458 146.045 66.0648 146.523 66.1176V66.3562ZM136.6 66.1176V66.3562H132.842V66.1176H133.153C133.517 66.1176 133.779 66.0115 133.944 65.8021C134.048 65.6629 134.099 65.3317 134.099 64.8062V59.1227C134.099 58.6792 134.07 58.3856 134.015 58.2442C133.971 58.1358 133.883 58.0432 133.748 57.9657C133.559 57.8619 133.36 57.8113 133.153 57.8113H132.842V57.5728H136.6V57.8113H136.284C135.927 57.8113 135.667 57.9174 135.504 58.1268C135.396 58.2661 135.343 58.5973 135.343 59.1227V64.8062C135.343 65.2503 135.371 65.5439 135.426 65.6848C135.469 65.7931 135.559 65.8858 135.698 65.9632C135.883 66.0671 136.077 66.1176 136.284 66.1176H136.6ZM128.163 62.9514L126.686 59.4079L125.168 62.9514H128.163ZM128.362 63.4286H124.963L124.377 64.804C124.231 65.1442 124.156 65.4002 124.156 65.568C124.156 65.7005 124.22 65.8195 124.348 65.9211C124.474 66.0205 124.749 66.0867 125.171 66.1176V66.3562H122.405V66.1176C122.771 66.0536 123.007 65.97 123.115 65.8661C123.336 65.6584 123.578 65.2368 123.845 64.603L126.93 57.374H127.149L130.199 64.6805C130.444 65.2677 130.666 65.6472 130.867 65.824C131.068 65.9986 131.346 66.0957 131.705 66.1176V66.3562H128.247V66.1176C128.596 66.1002 128.832 66.0424 128.955 65.943C129.078 65.8442 129.138 65.7224 129.138 65.5792C129.138 65.3889 129.052 65.0886 128.88 64.6782L128.362 63.4286ZM117.978 58.0499V61.494H120.598C120.966 61.494 121.237 61.4149 121.407 61.2554C121.579 61.0949 121.692 60.7743 121.749 60.2887H121.987V63.2691H121.749C121.744 62.9295 121.701 62.6774 121.616 62.5186C121.531 62.3575 121.413 62.239 121.264 62.1587C121.113 62.0779 120.893 62.0375 120.598 62.0375H117.978V64.8062C117.978 65.2503 118.007 65.5439 118.062 65.6848C118.104 65.7931 118.194 65.8858 118.331 65.9632C118.518 66.0671 118.715 66.1176 118.922 66.1176H119.235V66.3562H115.477V66.1176H115.788C116.152 66.1176 116.415 66.0115 116.58 65.8021C116.683 65.6629 116.734 65.3317 116.734 64.8062V59.1227C116.734 58.6792 116.705 58.3856 116.65 58.2442C116.606 58.1358 116.518 58.0432 116.384 57.9657C116.198 57.8619 116 57.8113 115.788 57.8113H115.477V57.5728H123.019L123.112 59.5073H122.887C122.775 59.0941 122.645 58.791 122.497 58.5995C122.347 58.407 122.164 58.2655 121.948 58.1802C121.729 58.0937 121.394 58.0499 120.937 58.0499H117.978ZM150.077 58.0499V61.494H152.697C153.065 61.494 153.337 61.4149 153.506 61.2554C153.678 61.0949 153.791 60.7743 153.848 60.2887H154.086V63.2691H153.848C153.844 62.9295 153.8 62.6774 153.716 62.5186C153.63 62.3575 153.512 62.239 153.363 62.1587C153.212 62.0779 152.992 62.0375 152.697 62.0375H150.077V64.8062C150.077 65.2503 150.106 65.5439 150.161 65.6848C150.203 65.7931 150.293 65.8858 150.43 65.9632C150.618 66.0671 150.814 66.1176 151.021 66.1176H151.334V66.3562H147.577V66.1176H147.887C148.251 66.1176 148.514 66.0115 148.679 65.8021C148.782 65.6629 148.833 65.3317 148.833 64.8062V59.1227C148.833 58.6792 148.805 58.3856 148.749 58.2442C148.706 58.1358 148.617 58.0432 148.483 57.9657C148.297 57.8619 148.099 57.8113 147.887 57.8113H147.577V57.5728H155.118L155.211 59.5073H154.986C154.873 59.0941 154.744 58.791 154.596 58.5995C154.447 58.407 154.263 58.2655 154.047 58.1802C153.829 58.0937 153.493 58.0499 153.037 58.0499H150.077Z" fill="#314158"/>
<path fill-rule="evenodd" clip-rule="evenodd" d="M115.477 52.7144H173.637V53.1635H115.477V52.7144Z" fill="#314158"/>
<path fill-rule="evenodd" clip-rule="evenodd" d="M115.477 70.8472H173.861V71.184H115.477V70.8472Z" fill="#314158"/>
<path d="M176.5 62.0101C176.5 61.1422 176.67 60.3742 177.01 59.705C177.35 59.0359 177.836 58.5194 178.465 58.1556C179.096 57.784 179.826 57.5981 180.655 57.5981C181.618 57.5981 182.422 57.8586 183.069 58.379C183.724 58.8994 184.134 59.6102 184.3 60.5106H183.218C183.06 59.9071 182.749 59.4361 182.285 59.0976C181.829 58.7591 181.269 58.5896 180.605 58.5896C180.008 58.5896 179.482 58.7344 179.026 59.0235C178.569 59.3126 178.217 59.7174 177.968 60.2378C177.728 60.7498 177.607 61.3409 177.607 62.0101C177.607 62.6708 177.728 63.2614 177.968 63.7818C178.217 64.3028 178.569 64.7075 179.026 64.9967C179.482 65.2858 180.008 65.43 180.605 65.43C181.277 65.43 181.837 65.265 182.285 64.9343C182.733 64.5958 183.04 64.1209 183.206 63.5095H184.288C184.122 64.41 183.715 65.1207 183.069 65.6411C182.43 66.1615 181.625 66.4215 180.655 66.4215C179.826 66.4215 179.096 66.2401 178.465 65.8763C177.836 65.5047 177.35 64.9882 177.01 64.3275C176.67 63.6583 176.5 62.8858 176.5 62.0101Z" fill="#314158"/>
<path d="M188.43 66.4215C187.816 66.4215 187.269 66.2856 186.788 66.0128C186.315 65.74 185.946 65.3599 185.681 64.8726C185.415 64.3853 185.283 63.8234 185.283 63.1874C185.283 62.5513 185.415 61.9894 185.681 61.5021C185.946 61.0142 186.315 60.6342 186.788 60.3619C187.269 60.0891 187.816 59.9526 188.43 59.9526C189.044 59.9526 189.587 60.0891 190.06 60.3619C190.541 60.6342 190.914 61.0142 191.18 61.5021C191.445 61.9894 191.578 62.5513 191.578 63.1874C191.578 63.8234 191.445 64.3853 191.18 64.8726C190.914 65.3599 190.541 65.74 190.06 66.0128C189.587 66.2856 189.044 66.4215 188.43 66.4215ZM188.43 65.5171C188.845 65.5171 189.21 65.4177 189.525 65.2196C189.848 65.0214 190.097 64.7446 190.271 64.3893C190.446 64.0339 190.533 63.6337 190.533 63.1874C190.533 62.741 190.446 62.3402 190.271 61.9854C190.097 61.6301 189.848 61.3533 189.525 61.1551C189.21 60.9564 188.845 60.8576 188.43 60.8576C188.016 60.8576 187.646 60.9564 187.323 61.1551C187.008 61.3533 186.763 61.6301 186.589 61.9854C186.414 62.3402 186.327 62.741 186.327 63.1874C186.327 63.6337 186.414 64.0339 186.589 64.3893C186.763 64.7446 187.008 65.0214 187.323 65.2196C187.646 65.4177 188.016 65.5171 188.43 65.5171Z" fill="#314158"/>
<path d="M199.827 59.9526C200.54 59.9526 201.116 60.1761 201.556 60.6218C202.004 61.0681 202.228 61.762 202.228 62.704V66.3474H201.207V62.7657C201.207 62.1544 201.075 61.6879 200.809 61.3656C200.552 61.0434 200.183 60.8823 199.702 60.8823C199.171 60.8823 198.752 61.0681 198.446 61.4398C198.147 61.812 197.998 62.32 197.998 62.9639V66.3474H196.978V62.7657C196.978 62.1544 196.845 61.6879 196.58 61.3656C196.314 61.0434 195.937 60.8823 195.447 60.8823C194.933 60.8823 194.523 61.0805 194.216 61.4768C193.917 61.8653 193.768 62.3778 193.768 63.0139V66.3474H192.748V60.0273H193.631L193.768 60.8946C194.224 60.2665 194.842 59.9526 195.621 59.9526C196.078 59.9526 196.48 60.0559 196.828 60.2625C197.185 60.4607 197.45 60.7582 197.624 61.1551C198.081 60.3535 198.814 59.9526 199.827 59.9526Z" fill="#314158"/>
<path d="M206.733 59.9526C207.322 59.9526 207.845 60.0806 208.301 60.3372C208.765 60.5932 209.126 60.9648 209.383 61.4521C209.649 61.9399 209.782 62.5182 209.782 63.1874C209.782 63.8234 209.649 64.3853 209.383 64.8726C209.126 65.3599 208.765 65.74 208.301 66.0128C207.836 66.2856 207.314 66.4215 206.733 66.4215C206.219 66.4215 205.779 66.3311 205.415 66.1492C205.05 65.9589 204.763 65.7029 204.556 65.3807V68.8259H203.536V60.0273H204.419L204.556 61.0434C205.087 60.3164 205.813 59.9526 206.733 59.9526ZM206.634 65.5171C207.264 65.5171 207.77 65.3021 208.151 64.8726C208.541 64.4347 208.736 63.8728 208.736 63.1874C208.736 62.5013 208.541 61.9439 208.151 61.5144C207.77 61.0765 207.264 60.8576 206.634 60.8576C206.227 60.8576 205.863 60.9564 205.539 61.1551C205.224 61.3449 204.979 61.6177 204.805 61.9725C204.631 62.32 204.544 62.7163 204.544 63.1626C204.544 63.6168 204.631 64.0261 204.805 64.3893C204.979 64.7446 205.224 65.0214 205.539 65.2196C205.863 65.4177 206.227 65.5171 206.634 65.5171Z" fill="#314158"/>
<path d="M216.882 65.4177V66.3474H216.322C215.916 66.3474 215.625 66.2649 215.451 66.0993C215.277 65.9342 215.186 65.6906 215.177 65.3683C214.688 66.0706 213.979 66.4215 213.05 66.4215C212.345 66.4215 211.776 66.2564 211.345 65.9258C210.923 65.5957 210.711 65.1455 210.711 64.5751C210.711 63.939 210.927 63.4518 211.358 63.1127C211.797 62.7742 212.432 62.6046 213.261 62.6046H215.127V62.1712C215.127 61.7581 214.986 61.4358 214.705 61.2045C214.431 60.9732 214.045 60.8576 213.548 60.8576C213.108 60.8576 212.743 60.9564 212.453 61.1551C212.171 61.3449 211.997 61.6009 211.93 61.9231H210.91C210.985 61.3033 211.258 60.8205 211.731 60.473C212.212 60.1261 212.834 59.9526 213.597 59.9526C214.41 59.9526 215.036 60.1508 215.476 60.5477C215.923 60.9362 216.147 61.4976 216.147 62.233V64.9596C216.147 65.265 216.289 65.4177 216.571 65.4177H216.882ZM215.127 63.4602H213.162C212.216 63.4602 211.743 63.8111 211.743 64.5133C211.743 64.8272 211.868 65.0792 212.117 65.269C212.365 65.4593 212.702 65.5542 213.124 65.5542C213.746 65.5542 214.236 65.393 214.592 65.0708C214.949 64.7407 215.127 64.3068 215.127 63.7695V63.4602Z" fill="#314158"/>
<path d="M220.776 59.9526C221.547 59.9526 222.166 60.1839 222.63 60.6465C223.102 61.1097 223.339 61.8367 223.339 62.8281V66.3474H222.319V62.8898C222.319 62.2369 222.169 61.7412 221.871 61.4027C221.581 61.0558 221.158 60.8823 220.602 60.8823C220.005 60.8823 219.536 61.0889 219.196 61.5021C218.856 61.9147 218.686 62.4766 218.686 63.1874V66.3474H217.666V60.0273H218.549L218.686 60.8823C219.167 60.2625 219.864 59.9526 220.776 59.9526Z" fill="#314158"/>
<path d="M224.905 60.0273L226.858 65.1826L228.749 60.0273H229.831L226.908 67.4129C226.758 67.793 226.626 68.0782 226.51 68.2685C226.393 68.4582 226.249 68.5986 226.074 68.6895C225.9 68.7805 225.668 68.826 225.377 68.826H224.159V67.8963H225.066C225.266 67.8963 225.415 67.8761 225.514 67.8345C225.614 67.793 225.693 67.7228 225.751 67.624C225.817 67.5331 225.896 67.3759 225.987 67.153L226.31 66.3968L223.822 60.0273H224.905Z" fill="#314158"/>
<path d="M104.755 66.4119L108.125 57.5981H109.425L112.783 66.4119H111.609L110.675 64.0322H106.825L105.891 66.4119H104.755ZM107.153 63.0374H110.347L108.744 58.7945L107.153 63.0374Z" fill="#314158"/>
</g>
<defs>
<clipPath id="clip0_10087_209">
<rect width="230" height="71.1838" fill="white"/>
</clipPath>
</defs>
</svg>
