<svg width="200" height="30" viewBox="0 0 200 30" fill="none" xmlns="http://www.w3.org/2000/svg">
<path fill-rule="evenodd" clip-rule="evenodd" d="M57.6752 0.000488281C60.4144 0.000491057 63.0415 1.06534 64.9784 2.96066C66.9153 4.85599 68.0035 7.42664 68.0035 10.107C68.0035 12.7874 66.9153 15.358 64.9784 17.2534C63.0436 19.1465 60.4203 20.2111 57.6845 20.2135C49.0816 20.2135 42.6845 20.2135 32.3665 20.2135C31.8674 20.2135 31.3919 20.2595 30.9142 20.3761C29.3121 20.8529 28.2304 22.2099 27.2086 23.4913C26.7425 24.076 26.2888 24.6451 25.804 25.1076C25.1087 25.7709 24.2501 26.2425 23.3184 26.4869C22.8374 26.6131 22.3837 26.6278 21.8898 26.6278H10.7208C8.79242 26.696 7.10199 27.9887 6.85797 29.8691C6.85492 29.9424 6.79447 30.002 6.71952 30.002H0.135707C0.0607581 30.002 5.46447e-10 29.9426 0 29.8693V22.9663C0 22.9451 0.0051953 22.9251 0.0142245 22.9073C-0.000690882 21.7052 0.00810544 20.8522 0.0450147 19.4927C0.066476 18.7021 0.101806 17.945 0.271811 17.1695C1.60911 11.0692 7.21991 6.50648 13.9385 6.50646C20.2091 6.50671 27.1818 6.4926 33.4398 6.50646C34.1261 6.50534 34.7444 6.49864 35.3645 6.4925C35.9291 6.48689 36.4953 6.48183 37.1158 6.48183C37.6819 6.48183 38.2285 6.40181 38.7437 6.25332C40.2862 5.72833 41.2571 4.49761 42.2209 3.2756C42.6926 2.67763 43.1628 2.08163 43.6973 1.57167C44.7518 0.565704 45.8977 0.000492323 47.9571 0.000488281H57.6752ZM42.1474 6.7781C41.6482 6.7781 41.1537 6.84021 40.6762 6.95665C39.0739 7.43366 37.9922 8.79063 36.9704 10.0722C36.5042 10.6568 36.0506 11.2258 35.5657 11.6883C34.5114 12.6943 33.0811 13.2595 31.59 13.2595H13.9385C10.3397 13.2791 7.34973 15.9026 6.99009 19.2875C6.98485 19.3317 6.98019 19.3761 6.97605 19.4206C6.9725 19.4587 6.96998 19.4966 6.96863 19.5346C6.96609 19.5722 6.96389 19.6098 6.96201 19.6475C6.95888 19.7106 6.95948 19.7736 6.95946 19.8368C6.95931 20.4904 6.95807 21.1539 6.95807 21.7937C6.95807 22.495 6.96628 23.194 6.96628 23.8955C6.96628 23.9689 7.02704 24.0283 7.10199 24.0283H7.64482C7.71977 24.0283 7.78052 23.9689 7.78052 23.8955C7.78052 23.8403 7.78135 23.7861 7.78516 23.7312C7.90982 21.9371 9.21507 20.46 10.947 20.0373C11.406 19.9252 11.8574 19.9263 12.3267 19.9263H23.4537C24.87 19.9263 25.9786 19.9011 27.3538 19.9011C27.5456 19.9011 27.7351 19.8919 27.9218 19.874C28.2866 19.839 28.6412 19.7707 28.9821 19.6724C30.5242 19.1476 31.4951 17.9169 32.4592 16.695C32.9309 16.0971 33.401 15.5011 33.9356 14.9909C34.99 13.985 36.1359 13.4197 38.1954 13.4197L38.2092 13.4199H57.6845C58.5443 13.3944 59.4611 13.0488 60.0714 12.4518C60.7068 11.8299 61.064 10.9864 61.064 10.107C61.064 9.22762 60.7068 8.38406 60.0714 7.76219C59.4359 7.14051 58.5739 6.79098 57.6752 6.79097L42.1474 6.7781Z" fill="#C8FF2F"/>
<path d="M199.804 0C199.912 1.29061e-06 199.999 0.0875903 199.999 0.195637V15.3154C199.999 15.5019 199.981 15.6889 199.944 15.8735C199.832 16.4286 199.557 16.9385 199.152 17.3386C198.747 17.7387 198.232 18.0113 197.671 18.1217C196.427 18.3663 195.43 17.9533 194.476 17.22L179.902 3.84476C179.865 3.81117 179.818 3.79249 179.769 3.79249H175.251C175.143 3.79249 175.062 3.88302 175.062 3.99107V4.16339C175.062 4.24532 175.131 4.34157 175.251 4.35005C176.673 4.45035 177.818 5.63516 177.818 7.08205V17.981C177.818 18.0891 177.73 18.1767 177.622 18.1767H174.156C174.047 18.1767 173.96 18.0891 173.96 17.981V1.68886C173.96 0.860802 174.508 0.0978186 175.56 0.0328608L180.447 0.0327462C181.132 0.0643599 181.76 0.340346 182.224 0.783426L182.242 0.800697L195.813 13.1592C195.939 13.2747 196.142 13.1858 196.142 13.0153V0.195637C196.142 0.0875895 196.229 0 196.337 0H199.804Z" fill="#C8FF2F"/>
<path fill-rule="evenodd" clip-rule="evenodd" d="M162.285 0C167.308 1.17201e-07 171.38 4.07233 171.38 9.09581C171.38 14.1193 167.308 18.1916 162.285 18.1916H153.189C148.165 18.1916 144.093 14.1193 144.093 9.09581C144.093 4.07234 148.165 1.66509e-05 153.189 0H162.285ZM153.189 3.63831C150.175 3.63832 147.731 6.08174 147.731 9.09581C147.731 12.1099 150.175 14.5533 153.189 14.5533H162.285C165.299 14.5533 167.742 12.1099 167.742 9.09581C167.742 6.08173 165.299 3.63831 162.285 3.63831H153.189Z" fill="#C8FF2F"/>
<path d="M111.82 0.000382103C111.928 0.000384342 112.015 0.0879732 112.015 0.196019V3.44267C112.015 3.55072 111.928 3.63831 111.82 3.63831H93.5738C91.6494 3.63835 90.0692 5.09205 89.9004 6.94686C89.8969 6.98546 89.8948 7.02376 89.8948 7.06248V9.82815C89.8948 9.93619 89.9628 10.0187 90.0709 10.0187H90.2432C90.3611 10.0187 90.4222 9.93391 90.4294 9.82815C90.5262 8.4034 91.7126 7.27769 93.1619 7.27769C93.5532 7.27627 93.9249 7.27627 94.3162 7.27627H111.82C111.928 7.27627 112.015 7.36386 112.015 7.47191V10.7186C112.015 10.8266 111.928 10.9142 111.82 10.9142H91.4599C90.4621 10.9142 89.8948 11.7773 89.8948 12.4621V17.9986C89.8948 18.1066 89.7979 18.1901 89.6899 18.1901H86.3929C86.2849 18.1901 86.1973 18.1025 86.1973 17.9944V7.27627C86.1973 6.96231 86.2174 6.65296 86.2565 6.34948C86.718 2.76866 89.8181 4.00434e-05 93.5738 0L111.82 0.000382103Z" fill="#C8FF2F"/>
<path d="M119.035 0C119.144 0 119.231 0.0875895 119.231 0.195637V3.638C119.231 5.64722 120.882 7.27602 122.919 7.27604H123.535C123.537 7.27599 123.539 7.27589 123.541 7.27589H136.085C136.613 7.27589 137.669 6.88641 137.669 5.84954V0.19151C137.669 0.132783 137.698 0.0813254 137.742 0.0465783C137.776 0.0175323 137.82 0 137.868 0H141.171C141.279 0 141.367 0.0875899 141.367 0.195637V10.9138C141.367 11.2278 141.347 11.5371 141.308 11.8406C140.846 15.4214 137.746 18.19 133.991 18.1901L133.984 18.19L115.738 18.1901C115.63 18.1901 115.543 18.1025 115.543 17.9944V14.7477C115.543 14.6421 115.627 14.556 115.731 14.5522C115.736 14.5519 115.74 14.5518 115.744 14.5518H133.991C134.058 14.5518 134.124 14.5499 134.19 14.5464C136.069 14.4444 137.572 12.9563 137.668 11.1016C137.677 10.7361 137.668 10.3101 137.669 9.8393V8.36194C137.669 8.2539 137.601 8.17142 137.493 8.17142H137.321C137.203 8.17143 137.142 8.25618 137.135 8.36194C137.038 9.78669 135.852 10.9124 134.402 10.9124C134.011 10.9138 133.639 10.9138 133.248 10.9138H126.348V10.914H122.919C118.845 10.914 115.543 7.65645 115.543 3.638V0.195637C115.543 0.0875895 115.63 0 115.738 0H119.035Z" fill="#C8FF2F"/>
<path d="M86.1973 28.1201H86.8958C86.9301 28.3799 87.0331 28.6079 87.2047 28.804C87.3762 29 87.6017 29.152 87.8812 29.2599C88.1655 29.3628 88.4915 29.4143 88.8592 29.4143C89.4131 29.4143 89.8519 29.3211 90.1754 29.1349C90.5038 28.9437 90.6681 28.6863 90.6681 28.3628C90.6681 28.1127 90.5651 27.9216 90.3592 27.7892C90.1582 27.6568 89.8053 27.5612 89.3004 27.5024L88.2341 27.3701C87.5625 27.2916 87.0797 27.1323 86.7855 26.8921C86.4914 26.647 86.3443 26.3185 86.3443 25.9068C86.3443 25.5783 86.4424 25.294 86.6385 25.0538C86.8346 24.8087 87.1091 24.6224 87.462 24.4949C87.8199 24.3626 88.2366 24.2964 88.7121 24.2964C89.1876 24.2964 89.6092 24.3699 89.9769 24.517C90.3494 24.6591 90.6436 24.8601 90.8593 25.12C91.0799 25.3749 91.2 25.6764 91.2196 26.0244H90.521C90.4916 25.7891 90.3984 25.5881 90.2416 25.4214C90.0847 25.2499 89.8739 25.1175 89.6092 25.0244C89.3494 24.9263 89.0454 24.8773 88.6974 24.8773C88.1925 24.8773 87.788 24.968 87.4841 25.1494C87.1851 25.3258 87.0355 25.5734 87.0355 25.8921C87.0355 26.1372 87.1336 26.3259 87.3297 26.4583C87.5307 26.5857 87.8689 26.6789 88.3444 26.7377L89.3886 26.8774C89.8739 26.9362 90.2587 27.022 90.5431 27.1348C90.8323 27.2475 91.0406 27.3995 91.1681 27.5907C91.2955 27.7769 91.3593 28.0147 91.3593 28.3039C91.3593 28.652 91.2539 28.9535 91.0431 29.2084C90.8372 29.4633 90.5455 29.6594 90.168 29.7966C89.7906 29.9339 89.3518 30.0025 88.8518 30.0025C88.3469 30.0025 87.8983 29.9241 87.5062 29.7672C87.114 29.6055 86.8027 29.3849 86.5723 29.1054C86.3419 28.8211 86.2169 28.4927 86.1973 28.1201Z" fill="#F2F2FA"/>
<path d="M110.22 24.7229H110.912V29.9069H110.22V24.7229ZM107.853 24.392H113.279V25.0023H107.853V24.392Z" fill="#F2F2FA"/>
<path d="M130.99 27.5907C130.99 27.9534 131.064 28.2696 131.211 28.5392C131.363 28.804 131.579 29.0098 131.858 29.1569C132.138 29.304 132.466 29.3775 132.843 29.3775C133.226 29.3775 133.554 29.304 133.829 29.1569C134.103 29.0098 134.317 28.804 134.469 28.5392C134.62 28.2696 134.696 27.9534 134.696 27.5907V24.392H135.388V27.6054C135.388 28.0809 135.28 28.5 135.064 28.8628C134.848 29.2206 134.549 29.5001 134.167 29.7011C133.79 29.902 133.348 30.0025 132.843 30.0025C132.339 30.0025 131.895 29.902 131.513 29.7011C131.13 29.5001 130.831 29.2206 130.615 28.8628C130.405 28.5 130.299 28.0809 130.299 27.6054V24.392H130.99V27.5907Z" fill="#F2F2FA"/>
<path d="M155.326 24.392C155.939 24.392 156.478 24.5072 156.944 24.7376C157.41 24.968 157.773 25.2915 158.032 25.7082C158.292 26.12 158.422 26.6004 158.422 27.1495C158.422 27.6936 158.292 28.174 158.032 28.5907C157.773 29.0025 157.41 29.326 156.944 29.5613C156.478 29.7917 155.939 29.9069 155.326 29.9069H152.966V24.392H155.326ZM153.657 29.7231L153.216 29.2966H155.356C155.826 29.2966 156.238 29.2059 156.591 29.0246C156.944 28.8432 157.219 28.5907 157.415 28.2672C157.616 27.9436 157.716 27.5711 157.716 27.1495C157.716 26.7181 157.616 26.3431 157.415 26.0244C157.219 25.7009 156.944 25.4484 156.591 25.267C156.238 25.0856 155.826 24.9949 155.356 24.9949H153.216L153.657 24.5758V29.7231Z" fill="#F2F2FA"/>
<path d="M175.768 24.392H176.459V29.9069H175.768V24.392Z" fill="#F2F2FA"/>
<path d="M196.904 30.0025C196.291 30.0025 195.749 29.8824 195.279 29.6422C194.813 29.402 194.45 29.0687 194.19 28.6422C193.931 28.2108 193.801 27.7132 193.801 27.1495C193.801 26.5808 193.931 26.0832 194.19 25.6567C194.45 25.2303 194.813 24.8969 195.279 24.6567C195.749 24.4165 196.291 24.2964 196.904 24.2964C197.517 24.2964 198.056 24.4165 198.522 24.6567C198.987 24.8969 199.35 25.2303 199.61 25.6567C199.87 26.0832 200 26.5808 200 27.1495C200 27.7132 199.87 28.2108 199.61 28.6422C199.35 29.0687 198.987 29.402 198.522 29.6422C198.056 29.8824 197.517 30.0025 196.904 30.0025ZM196.904 29.3775C197.389 29.3775 197.811 29.2868 198.169 29.1054C198.526 28.9192 198.803 28.6593 198.999 28.326C199.196 27.9926 199.294 27.6005 199.294 27.1495C199.294 26.6936 199.196 26.2989 198.999 25.9656C198.803 25.6322 198.526 25.3749 198.169 25.1935C197.811 25.0121 197.389 24.9214 196.904 24.9214C196.418 24.9214 195.997 25.0121 195.639 25.1935C195.281 25.3749 195.002 25.6322 194.801 25.9656C194.605 26.2989 194.507 26.6936 194.507 27.1495C194.507 27.6005 194.605 27.9926 194.801 28.326C195.002 28.6593 195.281 28.9192 195.639 29.1054C195.997 29.2868 196.418 29.3775 196.904 29.3775Z" fill="#F2F2FA"/>
</svg>
