<svg width="234" height="234" viewBox="0 0 234 234" fill="none" xmlns="http://www.w3.org/2000/svg">
<rect width="234" height="234" rx="117" fill="#C8FF2F"/>
<path fill-rule="evenodd" clip-rule="evenodd" d="M171.953 82C178.362 82 184.509 84.4916 189.042 88.9264C193.574 93.3613 196.12 99.3763 196.12 105.648C196.12 111.92 193.574 117.935 189.042 122.37C184.514 126.799 178.376 129.29 171.975 129.296C151.845 129.296 139.216 129.296 115.074 129.296C113.906 129.296 112.793 129.404 111.675 129.676C107.927 130.792 105.396 133.967 103.005 136.966C101.914 138.334 100.853 139.665 99.718 140.748C98.0911 142.3 96.0822 143.403 93.9022 143.975C92.7766 144.27 91.7149 144.305 90.5593 144.305H62.0855C57.5732 144.464 53.6178 147.489 53.0468 151.889C53.0397 152.06 52.8982 152.2 52.7229 152.2H37.3175C37.1422 152.2 37 152.061 37 151.889V135.737C37 135.688 37.0122 135.641 37.0333 135.599C36.9984 132.786 37.019 130.79 37.1053 127.609C37.1555 125.76 37.2382 123.988 37.636 122.173C40.7651 107.899 53.8937 97.2232 69.6145 97.2232C84.2868 97.2238 98.2623 97.1908 112.905 97.2232C114.511 97.2206 115.958 97.2049 117.409 97.1905C118.73 97.1774 120.055 97.1656 121.507 97.1656C122.831 97.1655 124.11 96.9783 125.316 96.6309C128.925 95.4024 131.197 92.5227 133.452 89.6634C134.556 88.2642 135.656 86.8696 136.906 85.6764C139.374 83.3225 142.055 82 146.874 82H171.953ZM135.62 97.8588C134.452 97.8588 133.295 98.0041 132.177 98.2766C128.428 99.3927 125.897 102.568 123.506 105.567C122.415 106.934 121.354 108.266 120.22 109.348C117.753 111.702 114.406 113.024 110.917 113.024H69.6145C61.1937 113.07 54.1975 119.209 53.356 127.129C53.3437 127.233 53.3328 127.336 53.3231 127.441C53.3148 127.53 53.3089 127.618 53.3057 127.707C53.2998 127.795 53.2947 127.883 53.2903 127.972C53.2829 128.119 53.2843 128.267 53.2843 128.414C53.2839 129.944 53.281 131.496 53.281 132.993C53.281 134.634 53.3003 136.27 53.3003 137.912C53.3003 138.083 53.4424 138.222 53.6178 138.222H54.8879C55.0633 138.222 55.2055 138.083 55.2055 137.912C55.2055 137.782 55.2074 137.655 55.2163 137.527C55.508 133.329 58.5622 129.873 62.6147 128.884C63.6887 128.621 64.7449 128.624 65.843 128.624H91.8788C95.1928 128.624 97.7868 128.565 101.005 128.565C101.453 128.565 101.897 128.543 102.334 128.502C103.187 128.42 104.017 128.26 104.815 128.03C108.423 126.802 110.695 123.922 112.95 121.063C114.054 119.664 115.154 118.269 116.405 117.076C118.872 114.722 121.554 113.399 126.373 113.399L126.405 113.4H171.975C173.986 113.34 176.132 112.532 177.56 111.135C179.046 109.679 179.882 107.706 179.882 105.648C179.882 103.59 179.046 101.617 177.56 100.161C176.073 98.7068 174.056 97.8889 171.953 97.8889L135.62 97.8588Z" fill="black"/>
</svg>
